<?xml version="1.0" encoding="utf-8"?>
<!-- Generator: Adobe Illustrator 25.0.1, SVG Export Plug-In . SVG Version: 6.00 Build 0)  -->
<svg version="1.1" id="Layer_1" xmlns="http://www.w3.org/2000/svg" xmlns:xlink="http://www.w3.org/1999/xlink" x="0px" y="0px"
	 viewBox="0 0 993.15 517.24" style="enable-background:new 0 0 993.15 517.24;" xml:space="preserve">
<style type="text/css">
	.st0{display:none;}
	.st1{display:inline;}
	.st2{fill:#960000;}
	.st3{fill:#DD0016;}
	.st4{fill:#CB9E5B;}
	.st5{clip-path:url(#SVGID_2_);fill:#FFFFFF;}
	.st6{fill:url(#SVGID_3_);}
	.st7{clip-path:url(#SVGID_5_);fill:#FFFFFF;}
	.st8{fill:url(#SVGID_6_);}
	.st9{fill:url(#SVGID_7_);}
	.st10{fill:url(#SVGID_8_);}
	.st11{fill:url(#SVGID_9_);}
	.st12{fill:url(#SVGID_10_);}
	.st13{fill:url(#SVGID_11_);}
	.st14{fill:url(#SVGID_12_);}
	.st15{fill:url(#SVGID_13_);}
	.st16{fill:url(#SVGID_14_);}
	.st17{clip-path:url(#SVGID_16_);fill:#FFFFFF;}
	.st18{fill:url(#SVGID_17_);}
	.st19{fill:url(#SVGID_18_);}
	.st20{fill:url(#SVGID_19_);}
	.st21{fill:url(#SVGID_20_);}
	.st22{fill:url(#SVGID_21_);}
	.st23{fill:url(#SVGID_22_);}
	.st24{fill:url(#SVGID_23_);}
	.st25{fill:url(#SVGID_24_);}
	.st26{fill:url(#SVGID_25_);}
	.st27{fill:url(#SVGID_26_);}
	.st28{clip-path:url(#SVGID_28_);fill:#FFFFFF;}
	.st29{fill:url(#SVGID_29_);}
	.st30{fill:url(#SVGID_30_);}
	.st31{fill:url(#SVGID_31_);}
	.st32{fill:url(#SVGID_32_);}
	.st33{fill:url(#SVGID_33_);}
	.st34{fill:url(#SVGID_34_);}
	.st35{fill:url(#SVGID_35_);}
	.st36{fill:url(#SVGID_36_);}
	.st37{fill:url(#SVGID_37_);}
	.st38{fill:url(#SVGID_38_);}
	.st39{clip-path:url(#SVGID_40_);fill:#FFFFFF;}
	.st40{fill:url(#SVGID_41_);}
	.st41{fill:url(#SVGID_42_);}
	.st42{fill:url(#SVGID_43_);}
	.st43{fill:url(#SVGID_44_);}
	.st44{fill:url(#SVGID_45_);}
	.st45{fill:url(#SVGID_46_);}
	.st46{fill:url(#SVGID_47_);}
	.st47{fill:url(#SVGID_48_);}
	.st48{fill:url(#SVGID_49_);}
	.st49{fill:url(#SVGID_50_);}
	.st50{fill:url(#SVGID_51_);}
	.st51{fill:url(#SVGID_52_);}
	.st52{fill:url(#SVGID_53_);}
	.st53{fill:url(#SVGID_54_);}
	.st54{clip-path:url(#SVGID_56_);}
	.st55{clip-path:url(#SVGID_58_);}
	.st56{clip-path:url(#SVGID_60_);}
	.st57{clip-path:url(#SVGID_62_);}
	.st58{clip-path:url(#SVGID_64_);}
</style>
<g>
	<g>
		<g>
			<g>
				<path class="st3" d="M906.74,258.42c0,0-9.23-9.36,0.31-17.25c0,0-8.27-4.84-18.95,1.93c-4.23,2.68-9.07,4.32-14.07,4.62
					c-3.34,0.2-6.95-0.15-10.1-1.73c0,0,7.85,11.3,19.79,8.61c0,0-6.73,4.44-19.3,3.75c0,0,7.63,5.3,13.7,6.03
					c0,0,8.11,1.24,17.43-3.59C895.55,260.8,901.25,257.67,906.74,258.42z"/>
				<path class="st4" d="M880.7,265.17c-1.59,0-2.56-0.14-2.68-0.16c-6.13-0.74-13.64-5.92-13.96-6.14l-1.81-1.26l2.2,0.12
					c7.18,0.39,12.46-0.93,15.58-2.1c-10.07-0.03-16.55-9.19-16.63-9.29l-1.4-2.01l2.19,1.1c2.66,1.33,5.96,1.89,9.79,1.66
					c4.8-0.29,9.56-1.85,13.77-4.53c10.87-6.9,19.25-2.15,19.6-1.95l0.77,0.45l-0.69,0.57c-2.57,2.13-3.95,4.56-4.08,7.22
					c-0.25,4.91,3.78,9.08,3.82,9.12l1.28,1.31l-1.81-0.25c-5.22-0.72-10.75,2.28-10.8,2.31
					C889.58,264.61,883.89,265.17,880.7,265.17z M866.67,259.06c2.62,1.59,7.47,4.23,11.52,4.72c0.1,0.01,8.06,1.15,17.07-3.53
					c0.21-0.11,4.95-2.68,10.03-2.57c-1.3-1.69-3.37-5.02-3.17-8.87c0.14-2.76,1.42-5.28,3.82-7.5c-2.27-0.98-9.05-3.05-17.5,2.31
					c-4.39,2.78-9.35,4.41-14.36,4.72c-3,0.18-5.7-0.1-8.07-0.84c2.8,3,9.18,8.39,17.58,6.5l3.33-0.75l-2.85,1.88
					c-0.26,0.17-6.09,3.93-16.99,3.93C866.94,259.06,866.81,259.06,866.67,259.06z"/>
			</g>
			<g>
				<defs>
					<path id="SVGID_1_" d="M905.29,257.68c0,0-7.56-8.72,0.64-16.37c0,0-7.57-4.99-18.12,1.79c-4.18,2.68-8.69,4.76-13.63,5.06
						c-3.3,0.2-5.05,0.4-8.18-0.66c0,0,8.41,10.41,20.91,5.75c0,0-5.68,5.93-20.24,5.81c0,0,0.95,0.6,2.88,1.64
						c6.86,3.71,13.76,4.56,20.88,2.13c0.09-0.03,0.17-0.06,0.26-0.09c1.87-0.66,3.67-1.52,5.38-2.53
						C897.78,259.22,901.24,257.12,905.29,257.68z"/>
				</defs>
				<clipPath id="SVGID_2_">
					<use xlink:href="#SVGID_1_"  style="overflow:visible;"/>
				</clipPath>
				<path class="st5" d="M872.46,255.26c-5.63,0-9.12-1.86-9.36-2l1.66-3.1c0.34,0.18,8.35,4.35,19.99-1.64
					c1.05-0.54,2.03-1.16,2.86-1.7c2.21-1.44,10.18-5.82,19.64-1.55l-1.42,3.22c-7.66-3.46-13.98-0.25-16.34,1.29
					c-0.9,0.59-1.98,1.27-3.16,1.88C880.96,254.42,876.23,255.26,872.46,255.26z"/>
				<path class="st5" d="M874.16,262.75c-5.63,0-11.22-2.91-11.46-3.05l3.76-2.04l-0.83,1.55l0.82-1.55
					c0.33,0.18,8.35,4.35,19.99-1.64c1.04-0.54,2.03-1.16,2.86-1.7c2.21-1.44,10.17-5.83,19.64-1.55l-1.42,3.22
					c-7.87-3.56-14.5,0.09-16.34,1.29c-0.9,0.59-1.98,1.27-3.16,1.88C882.66,261.91,877.93,262.75,874.16,262.75z"/>
			</g>
		</g>
		<linearGradient id="SVGID_3_" gradientUnits="userSpaceOnUse" x1="902.8096" y1="273.2379" x2="916.4597" y2="273.2379">
			<stop  offset="0.0843" style="stop-color:#CB9E5B"/>
			<stop  offset="0.3914" style="stop-color:#AA824A"/>
			<stop  offset="0.4465" style="stop-color:#E1CBA6"/>
			<stop  offset="0.4567" style="stop-color:#ECD9B7"/>
			<stop  offset="0.5481" style="stop-color:#B8925B"/>
			<stop  offset="0.562" style="stop-color:#B0874D"/>
			<stop  offset="0.7211" style="stop-color:#CB9E5B"/>
		</linearGradient>
		<path class="st6" d="M916.46,230.42c0-0.6-2.12-1.11-4.99-1.26v-1.43c0-1.01-0.82-1.83-1.83-1.83c-1.01,0-1.83,0.82-1.83,1.83
			v1.43c-2.88,0.15-4.99,0.66-4.99,1.26c0,0.6,2.12,1.11,4.99,1.26v88.9l3.66-0.33v-88.57
			C914.34,231.53,916.46,231.02,916.46,230.42z"/>
		<g>
			<g>
				<g>
					<path class="st3" d="M476.34,46.13c0,0-13.09-13.28,0.44-24.47c0,0-11.73-6.86-26.88,2.74c-6,3.8-12.86,6.13-19.95,6.55
						c-4.74,0.29-9.86-0.21-14.33-2.45c0,0,11.13,16.03,28.07,12.22c0,0-9.55,6.3-27.37,5.32c0,0,10.83,7.51,19.42,8.56
						c0,0,11.51,1.76,24.72-5.1C460.47,49.51,468.55,45.06,476.34,46.13z"/>
					<path class="st4" d="M439.42,55.44c-2.24,0-3.6-0.2-3.76-0.22c-8.63-1.05-19.24-8.35-19.69-8.66l-1.81-1.26l2.2,0.12
						c11.39,0.62,19.4-1.79,23.6-3.54c-14.99,0.89-24.74-12.87-24.85-13.02l-1.4-2.01l2.19,1.1c3.82,1.91,8.53,2.71,14.01,2.38
						c6.85-0.41,13.65-2.65,19.65-6.46c7.98-5.06,15.02-5.55,19.52-5.07c4.9,0.52,7.88,2.24,8.01,2.31l0.77,0.45l-0.69,0.57
						c-3.71,3.07-5.69,6.58-5.89,10.43c-0.36,7.08,5.43,13.06,5.49,13.12l1.28,1.31l-1.82-0.25c-7.48-1.02-15.4,3.27-15.48,3.31
						C451.93,54.65,443.92,55.44,439.42,55.44z M418.57,46.76c3.46,2.16,11.01,6.47,17.26,7.23c0.13,0.02,11.5,1.65,24.36-5.03
						c0.3-0.17,7.29-3.97,14.66-3.59c-1.77-2.19-5.09-7.1-4.8-12.85c0.2-3.96,2.09-7.56,5.61-10.71
						c-2.87-1.27-13.02-4.74-25.42,3.13c-6.18,3.92-13.18,6.22-20.25,6.65c-4.64,0.28-8.76-0.23-12.3-1.51
						c3.58,4.06,13.1,12.92,25.86,10.04l3.33-0.75l-2.85,1.88C443.67,41.49,434.92,47.12,418.57,46.76z"/>
				</g>
				<g>
					<defs>
						<path id="SVGID_4_" d="M474.85,45.37c0,0-11.31-12.72,0.81-23.56c0,0-11.2-7.01-26.17,2.6c-5.92,3.8-12.32,6.74-19.33,7.17
							c-4.68,0.29-8.05-0.01-12.48-1.52c0,0,11.85,15.19,29.21,9.31c0,0-7.53,7.74-28.33,7.39c0,0,1.85,1.14,4.58,2.63
							c9.72,5.32,19.97,6.44,30.08,3.01c0.12-0.04,0.24-0.08,0.37-0.13c2.66-0.93,5.21-2.15,7.63-3.58
							C463.64,47.26,469.11,44.57,474.85,45.37z"/>
					</defs>
					<clipPath id="SVGID_5_">
						<use xlink:href="#SVGID_4_"  style="overflow:visible;"/>
					</clipPath>
					<path class="st7" d="M427.73,41.64c-7.99,0-12.94-2.64-13.28-2.83l2.35-4.39c0.48,0.26,11.84,6.17,28.35-2.32
						c1.49-0.76,2.88-1.65,4.05-2.41c3.14-2.05,14.44-8.26,27.86-2.19l-2.01,4.56c-10.86-4.91-19.82-0.35-23.18,1.83
						c-1.27,0.83-2.8,1.8-4.49,2.67C439.79,40.45,433.08,41.64,427.73,41.64z"/>
					<path class="st7" d="M430.14,52.27c-7.99,0-15.92-4.13-16.25-4.32l5.33-2.9l-1.18,2.19l1.17-2.2
						c0.47,0.26,11.84,6.17,28.35-2.32c1.48-0.76,2.88-1.65,4.05-2.41c3.14-2.05,14.43-8.26,27.86-2.19l-2.01,4.56
						c-11.16-5.05-20.56,0.13-23.17,1.83c-1.28,0.83-2.81,1.8-4.49,2.67C442.2,51.08,435.49,52.27,430.14,52.27z"/>
				</g>
			</g>
			<linearGradient id="SVGID_6_" gradientUnits="userSpaceOnUse" x1="470.4084" y1="67.1442" x2="489.7685" y2="67.1442">
				<stop  offset="0.0843" style="stop-color:#CB9E5B"/>
				<stop  offset="0.3914" style="stop-color:#AA824A"/>
				<stop  offset="0.4465" style="stop-color:#E1CBA6"/>
				<stop  offset="0.4567" style="stop-color:#ECD9B7"/>
				<stop  offset="0.5481" style="stop-color:#B8925B"/>
				<stop  offset="0.562" style="stop-color:#B0874D"/>
				<stop  offset="0.7211" style="stop-color:#CB9E5B"/>
			</linearGradient>
			<path class="st8" d="M489.77,6.41c0-0.85-3-1.57-7.08-1.79V2.6c0-1.43-1.16-2.6-2.6-2.6c-1.43,0-2.6,1.16-2.6,2.6v2.03
				c-4.08,0.22-7.08,0.93-7.08,1.79s3,1.57,7.08,1.79v126.09l5.19-0.47V8.2C486.77,7.98,489.77,7.27,489.77,6.41z"/>
			<linearGradient id="SVGID_7_" gradientUnits="userSpaceOnUse" x1="441.1765" y1="155.9166" x2="551.945" y2="155.9166">
				<stop  offset="0.0843" style="stop-color:#CB9E5B"/>
				<stop  offset="0.3597" style="stop-color:#AA824A"/>
				<stop  offset="0.6008" style="stop-color:#E1CBA6"/>
				<stop  offset="0.6453" style="stop-color:#ECD9B7"/>
				<stop  offset="0.8525" style="stop-color:#B8925B"/>
				<stop  offset="0.8842" style="stop-color:#B0874D"/>
				<stop  offset="1" style="stop-color:#CB9E5B"/>
			</linearGradient>
			<path class="st9" d="M551.53,160.98l-4.46-8.15c-0.9-1.65-2.98-2.26-4.63-1.36l-8.15,4.46c-0.56,0.31-0.99,0.76-1.29,1.27
				c-0.02-0.67-0.24-1.33-0.67-1.91l-7.24-9.7c-0.55-0.73-1.34-1.2-2.24-1.34c-0.89-0.14-1.8,0.1-2.53,0.64l-9.7,7.24
				c-0.52,0.39-0.9,0.91-1.13,1.49c-0.14-0.63-0.45-1.22-0.92-1.69l-9.6-9.6c-1.33-1.33-3.49-1.33-4.82,0l-9.6,9.6
				c-0.48,0.48-0.78,1.07-0.91,1.69c-0.23-0.59-0.61-1.11-1.13-1.5l-9.7-7.24c-0.73-0.55-1.64-0.78-2.53-0.64
				c-0.9,0.13-1.7,0.61-2.24,1.34l-7.24,9.7c-0.43,0.57-0.65,1.24-0.67,1.91c-0.3-0.52-0.73-0.96-1.29-1.27l-8.15-4.46
				c-1.65-0.9-3.73-0.29-4.63,1.36l-4.46,8.15c-0.9,1.65-0.29,3.73,1.36,4.63l8.15,4.46c0.68,0.38,1.46,0.5,2.22,0.37
				c0.13-0.02,0.25-0.05,0.38-0.09c0.88-0.26,1.6-0.84,2.03-1.64l4.46-8.15c0.26-0.48,0.38-0.99,0.4-1.5c0.22,0.38,0.52,0.72,0.9,1
				l9.7,7.24c0.65,0.48,1.42,0.72,2.22,0.67c0.1-0.01,0.21-0.02,0.31-0.03c0.9-0.13,1.7-0.61,2.24-1.34l7.24-9.7
				c0.29-0.4,0.49-0.84,0.59-1.31c0.17,0.43,0.42,0.83,0.76,1.17l9.6,9.6c0.64,0.64,1.5,1,2.41,1c0.91,0,1.77-0.35,2.41-1l9.6-9.6
				c0.34-0.34,0.59-0.74,0.76-1.17c0.1,0.47,0.3,0.92,0.59,1.32l7.24,9.7c0.55,0.73,1.34,1.2,2.24,1.34
				c0.1,0.02,0.21,0.03,0.31,0.03c0.79,0.04,1.57-0.19,2.22-0.67l9.7-7.24c0.38-0.28,0.68-0.62,0.9-1c0.02,0.51,0.14,1.02,0.4,1.5
				l4.46,8.15c0.44,0.8,1.16,1.38,2.03,1.64c0.12,0.04,0.25,0.07,0.38,0.09c0.76,0.13,1.53,0.01,2.22-0.37l8.15-4.46
				C551.82,164.7,552.43,162.63,551.53,160.98z"/>
			<linearGradient id="SVGID_8_" gradientUnits="userSpaceOnUse" x1="458.9704" y1="111.7204" x2="534.9335" y2="111.7204">
				<stop  offset="0.0843" style="stop-color:#CB9E5B"/>
				<stop  offset="0.3848" style="stop-color:#AA824A"/>
				<stop  offset="0.7923" style="stop-color:#E1CBA6"/>
				<stop  offset="0.8676" style="stop-color:#ECD9B7"/>
			</linearGradient>
			<path class="st10" d="M499.67,127.54c5.25-0.71,9.18-3.43,9.18-6.66c0-3.32-4.13-6.1-9.58-6.72c2.9-0.33,4.95-1.27,4.95-2.41
				c0-1.17-2.13-2.12-5.14-2.43c3.97-0.56,6.94-2.66,6.94-5.16c0-2.62-3.26-4.8-7.52-5.23c1.63-0.38,2.8-1.32,2.8-2.43
				c0-1.11-1.17-2.06-2.81-2.43c0.85-0.15,1.86-0.53,2.49-1.52c1.5-2.33,0.19-6.82-3.91-13.35L496.95,79l-0.11,0.18
				c-4.1,6.53-5.41,11.02-3.91,13.35c0.63,0.98,1.64,1.37,2.49,1.52c-1.64,0.37-2.81,1.32-2.81,2.44c0,1.11,1.17,2.06,2.8,2.43
				c-4.26,0.43-7.52,2.61-7.52,5.23c0,2.5,2.96,4.6,6.94,5.16c-3,0.31-5.14,1.27-5.14,2.43c0,1.14,2.05,2.08,4.95,2.41
				c-5.45,0.62-9.58,3.4-9.58,6.72c0,3.24,3.93,5.95,9.18,6.66c-14,0.73-26.49,7.12-35.27,16.91c11.93-4.01,24.7-6.18,37.98-6.18
				c13.28,0,26.05,2.17,37.98,6.18C526.16,134.65,513.66,128.27,499.67,127.54z"/>
			<linearGradient id="SVGID_9_" gradientUnits="userSpaceOnUse" x1="398.8518" y1="269.116" x2="594.2446" y2="269.116">
				<stop  offset="0.0179" style="stop-color:#AA824A"/>
				<stop  offset="0.0397" style="stop-color:#B78D50"/>
				<stop  offset="0.0739" style="stop-color:#C29757"/>
				<stop  offset="0.122" style="stop-color:#C99C5A"/>
				<stop  offset="0.2556" style="stop-color:#CB9E5B"/>
				<stop  offset="0.5618" style="stop-color:#ECD9B7"/>
				<stop  offset="0.8225" style="stop-color:#CB9E5B"/>
				<stop  offset="0.8236" style="stop-color:#CB9E5B"/>
				<stop  offset="1" style="stop-color:#B0874D"/>
			</linearGradient>
			<path class="st11" d="M403.2,366.79c-2.2-15.6-4.38-31.73-4.35-47.57c-0.14-16.07,1.79-32.16,4.43-48.01
				c2.71-15.71,5.48-31.39,9.32-46.91c4.64-17.98,9.39-36.31,19.46-52.39c0,0,6.26-0.07,6.26-0.07c38.83-0.57,83.97-0.5,122.77,0.09
				c9.96,16.12,14.78,34.4,19.4,52.38c3.78,15.44,6.64,31.28,9.32,46.91c2.63,15.85,4.57,31.93,4.43,48.01
				c0.05,15.84-2.13,31.98-4.32,47.57c0,0-1.25,0-1.25,0c-0.39-14.08,0.26-33.39-0.77-47.19c-0.94-15.71-3.55-31.18-6.9-46.56
				c-4.91-23.05-10.19-46.1-17.82-68.41c-2.6-7.38-5.44-14.74-9.36-21.39l0.99,0.56c-29.03,0.12-87.46,0.07-116.48,0
				c0,0,0.99-0.56,0.99-0.56c-7.7,13.54-11.98,28.95-16.27,43.9c-7.8,30.36-15.67,61.09-17.82,92.46
				c-1.06,13.74-0.44,33.25-0.77,47.19C404.45,366.79,403.2,366.79,403.2,366.79L403.2,366.79z"/>
			<path class="st4" d="M426.51,346.16c-5.23-46.13,3.02-98,23.96-139.54c2.37-4.33,4.89-8.6,7.45-12.8
				c-1.59,4.47-3.51,9.35-5.24,13.77C436.81,252.14,429.65,299.07,426.51,346.16L426.51,346.16z"/>
			<path class="st4" d="M565.52,346.16c-3.14-47.09-10.3-94.02-26.17-138.57c-1.73-4.41-3.65-9.3-5.24-13.77
				c2.56,4.2,5.08,8.48,7.45,12.8C562.5,248.16,570.74,300.02,565.52,346.16L565.52,346.16z"/>
		</g>
		<g>
			<path class="st4" d="M856.61,410.9c1.59-8.99,3.29-17.96,5.5-26.85c3.28-12.66,6.6-25.6,13.73-36.91c0,0,4.35-0.03,4.35-0.03
				c22.67-0.29,63.87-0.28,86.51,0.04c3.98,6.45,6.85,13.38,9.04,20.41c5.22,16.22,8.37,32.91,11.21,49.56
				c1.85,11.17,3.23,22.51,3.13,33.84c0.11,8.26-0.92,17.06-1.89,25.21c0,0-1.13,8.33-1.13,8.33h-0.87
				c-0.25-9.93,0.27-23.55-0.44-33.28c-0.64-11.08-2.51-22-4.88-32.84c-2.29-10.86-4.79-21.67-7.72-32.36
				c-3.03-10.55-6.06-21.41-11.5-30.96c0,0,0.66,0.37,0.66,0.37c-20.47,0.12-61.66,0.08-82.13,0c0,0,0.67-0.38,0.67-0.38
				c-5.44,9.55-8.47,20.41-11.5,30.96c-2.46,9.58-4.95,19.21-7.07,28.9L856.61,410.9z"/>
			<linearGradient id="SVGID_10_" gradientUnits="userSpaceOnUse" x1="876.2702" y1="390.8351" x2="897.53" y2="390.8351">
				<stop  offset="0.0843" style="stop-color:#CB9E5B"/>
				<stop  offset="0.2351" style="stop-color:#B98F52"/>
				<stop  offset="0.3997" style="stop-color:#AE854C"/>
				<stop  offset="0.572" style="stop-color:#AA824A"/>
				<stop  offset="0.6099" style="stop-color:#B7935F"/>
				<stop  offset="0.6793" style="stop-color:#CAAC7F"/>
				<stop  offset="0.7514" style="stop-color:#D9C097"/>
				<stop  offset="0.8265" style="stop-color:#E4CEA9"/>
				<stop  offset="0.9066" style="stop-color:#EAD6B4"/>
				<stop  offset="1" style="stop-color:#ECD9B7"/>
			</linearGradient>
			<path class="st12" d="M882.44,419.12c2.93-15.78,6.69-31.38,11.72-46.71c1.13-3.17,2.38-6.64,3.37-9.86
				c-1.31,1.92-2.54,3.89-3.78,5.88c-8.54,14.44-14.4,31.63-17.48,49.34"/>
			<linearGradient id="SVGID_11_" gradientUnits="userSpaceOnUse" x1="882.199" y1="335.8285" x2="960.2983" y2="335.8285">
				<stop  offset="0.0843" style="stop-color:#CB9E5B"/>
				<stop  offset="0.3597" style="stop-color:#AA824A"/>
				<stop  offset="0.6008" style="stop-color:#E1CBA6"/>
				<stop  offset="0.6453" style="stop-color:#ECD9B7"/>
				<stop  offset="0.8525" style="stop-color:#B8925B"/>
				<stop  offset="0.8842" style="stop-color:#B0874D"/>
				<stop  offset="1" style="stop-color:#CB9E5B"/>
			</linearGradient>
			<path class="st13" d="M960,339.4l-3.14-5.75c-0.64-1.16-2.1-1.59-3.26-0.96l-5.75,3.14c-0.4,0.22-0.7,0.53-0.91,0.9
				c-0.02-0.47-0.17-0.94-0.47-1.35l-5.1-6.84c-0.38-0.51-0.95-0.85-1.58-0.94c-0.63-0.1-1.27,0.07-1.78,0.45l-6.84,5.1
				c-0.37,0.27-0.63,0.64-0.8,1.05c-0.1-0.45-0.32-0.86-0.65-1.19l-6.77-6.77c-0.94-0.94-2.46-0.94-3.4,0l-6.77,6.77
				c-0.34,0.34-0.55,0.75-0.64,1.19c-0.16-0.42-0.43-0.78-0.8-1.06l-6.84-5.1c-0.52-0.38-1.16-0.55-1.78-0.45
				c-0.64,0.09-1.2,0.43-1.58,0.94l-5.1,6.84c-0.3,0.41-0.46,0.88-0.47,1.35c-0.21-0.36-0.52-0.68-0.91-0.9l-5.75-3.14
				c-1.17-0.64-2.63-0.21-3.26,0.96l-3.14,5.75c-0.64,1.16-0.21,2.63,0.96,3.26l5.75,3.14c0.48,0.26,1.03,0.35,1.56,0.26
				c0.09-0.02,0.18-0.04,0.27-0.06c0.62-0.18,1.13-0.59,1.43-1.15l3.14-5.75c0.18-0.34,0.27-0.7,0.28-1.06
				c0.16,0.27,0.37,0.51,0.63,0.71l6.84,5.1c0.46,0.34,1,0.5,1.56,0.47c0.07,0,0.15-0.01,0.22-0.02c0.64-0.09,1.2-0.43,1.58-0.94
				l5.1-6.84c0.21-0.28,0.34-0.59,0.42-0.92c0.12,0.3,0.29,0.58,0.54,0.82l6.77,6.77c0.45,0.45,1.06,0.7,1.7,0.7
				c0.64,0,1.25-0.25,1.7-0.7l6.77-6.77c0.24-0.24,0.42-0.52,0.54-0.83c0.07,0.33,0.21,0.65,0.42,0.93l5.1,6.84
				c0.38,0.51,0.95,0.85,1.58,0.94c0.07,0.01,0.15,0.02,0.22,0.02c0.56,0.03,1.11-0.13,1.56-0.47l6.84-5.1
				c0.26-0.2,0.48-0.44,0.63-0.71c0.01,0.36,0.1,0.72,0.28,1.06l3.14,5.75c0.31,0.56,0.82,0.97,1.43,1.15
				c0.09,0.03,0.18,0.05,0.27,0.06c0.53,0.09,1.08,0,1.56-0.26l5.75-3.14C960.21,342.02,960.64,340.56,960,339.4z"/>
			<linearGradient id="SVGID_12_" gradientUnits="userSpaceOnUse" x1="987.0165" y1="434.4791" x2="923.8953" y2="398.0361">
				<stop  offset="0.0843" style="stop-color:#CB9E5B"/>
				<stop  offset="0.2351" style="stop-color:#B98F52"/>
				<stop  offset="0.3997" style="stop-color:#AE854C"/>
				<stop  offset="0.572" style="stop-color:#AA824A"/>
				<stop  offset="0.5912" style="stop-color:#B08A54"/>
				<stop  offset="0.672" style="stop-color:#C5A677"/>
				<stop  offset="0.7537" style="stop-color:#D6BC93"/>
				<stop  offset="0.8355" style="stop-color:#E2CCA7"/>
				<stop  offset="0.9175" style="stop-color:#EAD6B3"/>
				<stop  offset="1" style="stop-color:#ECD9B7"/>
			</linearGradient>
			<path class="st14" d="M966.53,469.96c-3.41-33.09-8.4-65.92-18.78-97.56c-1.13-3.16-2.38-6.63-3.37-9.86
				c1.31,1.92,2.54,3.89,3.78,5.88C965.2,397.25,971.56,437,966.53,469.96L966.53,469.96z"/>
			<linearGradient id="SVGID_13_" gradientUnits="userSpaceOnUse" x1="908.5804" y1="425.0984" x2="933.9169" y2="368.1918">
				<stop  offset="0.0843" style="stop-color:#CB9E5B"/>
				<stop  offset="0.2351" style="stop-color:#B98F52"/>
				<stop  offset="0.3997" style="stop-color:#AE854C"/>
				<stop  offset="0.572" style="stop-color:#AA824A"/>
				<stop  offset="0.6587" style="stop-color:#BB9866"/>
				<stop  offset="0.8114" style="stop-color:#D5BB92"/>
				<stop  offset="0.9303" style="stop-color:#E6D1AD"/>
				<stop  offset="1" style="stop-color:#ECD9B7"/>
			</linearGradient>
			<path class="st15" d="M921.25,362.55c2.47,11.3,3.04,22.67,3.12,34.09c-0.07,11.42-0.64,22.79-3.12,34.09
				c-2.48-11.3-3.05-22.67-3.12-34.09C918.21,385.22,918.78,373.85,921.25,362.55L921.25,362.55z"/>
			<linearGradient id="SVGID_14_" gradientUnits="userSpaceOnUse" x1="894.7449" y1="304.6672" x2="948.3041" y2="304.6672">
				<stop  offset="0.0843" style="stop-color:#CB9E5B"/>
				<stop  offset="0.3848" style="stop-color:#AA824A"/>
				<stop  offset="0.7923" style="stop-color:#E1CBA6"/>
				<stop  offset="0.8676" style="stop-color:#ECD9B7"/>
			</linearGradient>
			<path class="st16" d="M923.44,315.82c3.7-0.5,6.47-2.41,6.47-4.7c0-2.35-2.93-4.31-6.79-4.74c2.06-0.23,3.53-0.89,3.53-1.7
				c0-0.83-1.53-1.5-3.68-1.71c2.83-0.39,4.94-1.87,4.94-3.64c0-1.85-2.31-3.39-5.33-3.69c1.16-0.26,2-0.93,2-1.72
				c0-0.79-0.83-1.45-1.98-1.72c0.6-0.1,1.31-0.38,1.75-1.07c1.06-1.64,0.13-4.81-2.76-9.42l-0.08-0.12l-0.08,0.12
				c-2.89,4.6-3.82,7.77-2.76,9.42c0.45,0.69,1.15,0.96,1.76,1.07c-1.15,0.26-1.98,0.93-1.98,1.72c0,0.79,0.84,1.46,2,1.72
				c-3.02,0.3-5.33,1.83-5.33,3.69c0,1.77,2.12,3.26,4.94,3.64c-2.14,0.21-3.68,0.89-3.68,1.71c0,0.81,1.47,1.47,3.53,1.7
				c-3.86,0.43-6.79,2.39-6.79,4.74c0,2.28,2.77,4.2,6.47,4.7c-9.87,0.52-18.68,5.02-24.87,11.92c8.41-2.83,17.42-4.36,26.78-4.36
				s18.37,1.53,26.78,4.36C942.12,320.84,933.31,316.34,923.44,315.82z"/>
		</g>
		<g>
			<g>
				<path class="st3" d="M665.01,189.69c0,0-10.31-10.46,0.35-19.28c0,0-9.25-5.41-21.18,2.16c-4.72,3-10.13,4.83-15.72,5.16
					c-3.73,0.23-7.77-0.17-11.29-1.93c0,0,8.77,12.63,22.12,9.63c0,0-7.52,4.96-21.56,4.19c0,0,8.53,5.92,15.3,6.74
					c0,0,9.07,1.39,19.48-4.01C652.51,192.35,658.87,188.84,665.01,189.69z"/>
				<path class="st4" d="M635.92,197.16c-1.77,0-2.86-0.16-2.98-0.18c-6.83-0.83-15.21-6.6-15.56-6.85l-1.81-1.26l2.2,0.12
					c8.34,0.45,14.38-1.16,17.83-2.49c-0.12,0-0.23,0-0.35,0c-11.24,0-18.5-10.23-18.58-10.35l-1.4-2.01l2.19,1.1
					c2.99,1.5,6.68,2.12,10.97,1.86c5.37-0.32,10.71-2.08,15.42-5.07c12.11-7.68,21.43-2.4,21.83-2.17l0.77,0.45l-0.69,0.57
					c-2.89,2.39-4.44,5.12-4.59,8.12c-0.28,5.52,4.24,10.19,4.29,10.24l1.28,1.31l-1.81-0.25c-5.85-0.81-12.05,2.56-12.12,2.59
					C645.81,196.53,639.48,197.16,635.92,197.16z M619.98,190.33c2.87,1.76,8.47,4.85,13.13,5.42c0.11,0.02,9.02,1.29,19.11-3.95
					c0.23-0.13,5.62-3.06,11.32-2.86c-1.44-1.84-3.85-5.61-3.63-9.99c0.16-3.1,1.61-5.92,4.31-8.39
					c-2.46-1.05-10.25-3.47-19.71,2.54c-4.89,3.1-10.43,4.92-16.01,5.26c-3.46,0.21-6.56-0.14-9.25-1.03
					c3.04,3.32,10.3,9.65,19.91,7.49l3.33-0.75l-2.85,1.88C639.34,186.15,632.57,190.51,619.98,190.33z"/>
			</g>
			<g>
				<defs>
					<path id="SVGID_15_" d="M663.55,188.93c0,0-8.63-9.81,0.69-18.37c0,0-8.59-5.57-20.38,2c-4.67,3-9.71,5.31-15.23,5.65
						c-3.69,0.23-5.83,0.32-9.33-0.86c0,0,9.3,11.7,23.18,6.71c0,0-6.1,6.35-22.51,6.26c0,0,1.12,0.72,3.27,1.89
						c7.66,4.19,15.6,5.11,23.56,2.4c0.1-0.03,0.19-0.07,0.29-0.1c2.09-0.73,4.1-1.69,6.01-2.82
						C655,190.58,659.03,188.3,663.55,188.93z"/>
				</defs>
				<clipPath id="SVGID_16_">
					<use xlink:href="#SVGID_15_"  style="overflow:visible;"/>
				</clipPath>
				<path class="st17" d="M626.71,186.15c-6.29,0-10.2-2.08-10.46-2.23l1.85-3.46c0.37,0.2,9.33,4.86,22.34-1.83
					c1.17-0.6,2.27-1.3,3.19-1.9c2.47-1.61,11.37-6.51,21.95-1.73l-1.59,3.59c-8.55-3.87-15.62-0.28-18.26,1.44
					c-1,0.65-2.21,1.42-3.54,2.1C636.21,185.21,630.92,186.15,626.71,186.15z"/>
				<path class="st17" d="M628.6,194.52c-6.29,0-12.54-3.26-12.8-3.4l4.2-2.28l-0.93,1.73l0.92-1.73c0.37,0.2,9.33,4.86,22.34-1.83
					c1.17-0.6,2.27-1.3,3.19-1.9c2.47-1.61,11.37-6.51,21.95-1.73l-1.59,3.59c-8.79-3.97-16.2,0.1-18.26,1.44
					c-1.01,0.66-2.21,1.42-3.54,2.1C638.11,193.59,632.82,194.52,628.6,194.52z"/>
			</g>
		</g>
		<linearGradient id="SVGID_17_" gradientUnits="userSpaceOnUse" x1="660.4036" y1="206.2447" x2="675.6568" y2="206.2447">
			<stop  offset="0.0843" style="stop-color:#CB9E5B"/>
			<stop  offset="0.3914" style="stop-color:#AA824A"/>
			<stop  offset="0.4465" style="stop-color:#E1CBA6"/>
			<stop  offset="0.4567" style="stop-color:#ECD9B7"/>
			<stop  offset="0.5481" style="stop-color:#B8925B"/>
			<stop  offset="0.562" style="stop-color:#B0874D"/>
			<stop  offset="0.7211" style="stop-color:#CB9E5B"/>
		</linearGradient>
		<path class="st18" d="M675.66,158.4c0-0.67-2.36-1.24-5.58-1.41v-1.6c0-1.13-0.92-2.05-2.05-2.05c-1.13,0-2.05,0.92-2.05,2.05v1.6
			c-3.22,0.17-5.58,0.74-5.58,1.41c0,0.67,2.36,1.24,5.58,1.41v99.34l4.09-0.37V159.8C673.29,159.63,675.66,159.07,675.66,158.4z"/>
		<linearGradient id="SVGID_18_" gradientUnits="userSpaceOnUse" x1="627.0572" y1="347.8182" x2="656.9129" y2="346.2535">
			<stop  offset="0.0179" style="stop-color:#AA824A"/>
			<stop  offset="0.0641" style="stop-color:#B78D50"/>
			<stop  offset="0.1364" style="stop-color:#C29757"/>
			<stop  offset="0.2382" style="stop-color:#C99C5A"/>
			<stop  offset="0.5208" style="stop-color:#CB9E5B"/>
			<stop  offset="1" style="stop-color:#ECD9B7"/>
		</linearGradient>
		<path class="st19" d="M629.06,386.09c1.97-24.49,8.59-48.89,19.63-70.06c1.93-3.38,3.99-6.72,6.11-9.98
			c-0.8,2.49-1.68,4.92-2.56,7.34l-1.33,3.61c-7.8,23.05-12.89,46.75-16.41,70.74L629.06,386.09z"/>
		<linearGradient id="SVGID_19_" gradientUnits="userSpaceOnUse" x1="706.4692" y1="366.0614" x2="732.8392" y2="366.0614">
			<stop  offset="0" style="stop-color:#ECD9B7"/>
			<stop  offset="0.5186" style="stop-color:#CB9E5B"/>
			<stop  offset="0.5208" style="stop-color:#CB9E5B"/>
			<stop  offset="0.7901" style="stop-color:#C99C5A"/>
			<stop  offset="0.8871" style="stop-color:#C29757"/>
			<stop  offset="0.956" style="stop-color:#B78D50"/>
			<stop  offset="1" style="stop-color:#AA824A"/>
		</linearGradient>
		<path class="st20" d="M731.22,426.08c-3.34-37.02-8.93-73.81-20.86-109.07c0,0-1.33-3.61-1.33-3.61
			c-0.88-2.42-1.75-4.86-2.56-7.34c2.12,3.26,4.18,6.6,6.11,9.98C729.71,348.85,736.18,389.45,731.22,426.08L731.22,426.08z"/>
		<linearGradient id="SVGID_20_" gradientUnits="userSpaceOnUse" x1="604.9408" y1="368.1147" x2="749.6147" y2="339.993">
			<stop  offset="0.0179" style="stop-color:#AA824A"/>
			<stop  offset="0.0397" style="stop-color:#B78D50"/>
			<stop  offset="0.0739" style="stop-color:#C29757"/>
			<stop  offset="0.122" style="stop-color:#C99C5A"/>
			<stop  offset="0.2556" style="stop-color:#CB9E5B"/>
			<stop  offset="0.5618" style="stop-color:#ECD9B7"/>
			<stop  offset="0.8225" style="stop-color:#CB9E5B"/>
			<stop  offset="0.8236" style="stop-color:#CB9E5B"/>
			<stop  offset="1" style="stop-color:#B0874D"/>
		</linearGradient>
		<path class="st21" d="M606.23,374.72c0.83-5.91,1.83-11.8,2.93-17.65c1.96-10.67,4-21.37,6.86-31.98
			c3.38-12.52,7-25.3,14.16-36.44c0,0,4.95-0.04,4.95-0.04c25.39-0.33,71.44-0.32,96.81,0.05c6.7,10.86,10.25,22.44,13.48,34.29
			c4.61,17.19,7.75,34.68,10.41,52.25c0.84,7.46,2.35,15.35,2.26,23.02c0.01,3.28-0.19,6.5-0.44,9.72c-0.07,0.64,0.01,1.28-0.47,1.9
			c-0.7,1.18-1.75,2.69-2.61,3.76c0,0-1,0-1,0c0.03-10.04-0.53-19.93-2.81-29.74c-3.91-19.63-8.06-39.25-13.74-58.44
			c-2.91-9.46-5.91-19.15-10.88-27.71c0,0,0.76,0.43,0.76,0.43c-22.88,0.13-68.9,0.09-91.77,0c0,0,0.76-0.43,0.76-0.43
			c-5.31,9.2-8.44,19.63-11.49,29.79c-4.64,16.66-8.78,33.54-11.91,50.57L606.23,374.72z"/>
		<g>
			<linearGradient id="SVGID_21_" gradientUnits="userSpaceOnUse" x1="695.0508" y1="435.4813" x2="937.1934" y2="435.4813">
				<stop  offset="0" style="stop-color:#CB9E5B"/>
				<stop  offset="0.3848" style="stop-color:#AA824A"/>
				<stop  offset="0.5342" style="stop-color:#E1CBA6"/>
				<stop  offset="0.5618" style="stop-color:#ECD9B7"/>
				<stop  offset="0.7385" style="stop-color:#B8925B"/>
				<stop  offset="0.7655" style="stop-color:#B0874D"/>
				<stop  offset="0.9551" style="stop-color:#CB9E5B"/>
			</linearGradient>
			<path class="st22" d="M699.37,457.29c54.41-64.13,152.27-71.52,213.87-6c9.19,9.72,17.13,20.82,23.96,32.95
				c-13.36-58.05-69.32-97.71-128.09-97.52c-46.26-0.09-90.65,24.35-114.05,63.04L699.37,457.29z"/>
			<path class="st4" d="M809.37,417.82c2.37,11.04,2.86,22.17,2.85,33.37c-0.16,11.2-0.82,22.31-3.39,33.32
				c-2.39-11.04-2.87-22.17-2.85-33.37C806.15,439.94,806.82,428.83,809.37,417.82L809.37,417.82z"/>
			<path class="st4" d="M845.08,418.2c20.73,10.81,36.59,35.36,37.08,58.85c-0.06,2.49-0.18,4.99-0.44,7.45
				c-1.07-3.14-1.6-6.31-2.72-9.39C872.56,453.6,859.81,435.02,845.08,418.2L845.08,418.2z"/>
			<path class="st4" d="M771.81,418.2c-14.73,16.82-27.49,35.4-33.92,56.91c-1.12,3.08-1.65,6.26-2.72,9.39
				c-0.26-2.46-0.38-4.97-0.44-7.45C735.22,453.57,751.08,429.01,771.81,418.2L771.81,418.2z"/>
			<linearGradient id="SVGID_22_" gradientUnits="userSpaceOnUse" x1="770.7214" y1="375.8709" x2="847.4803" y2="375.8709">
				<stop  offset="0.0843" style="stop-color:#CB9E5B"/>
				<stop  offset="0.3597" style="stop-color:#AA824A"/>
				<stop  offset="0.6008" style="stop-color:#E1CBA6"/>
				<stop  offset="0.6453" style="stop-color:#ECD9B7"/>
				<stop  offset="0.8525" style="stop-color:#B8925B"/>
				<stop  offset="0.8842" style="stop-color:#B0874D"/>
				<stop  offset="1" style="stop-color:#CB9E5B"/>
			</linearGradient>
			<path class="st23" d="M847.19,379.38l-3.09-5.65c-0.63-1.14-2.06-1.56-3.21-0.94l-5.65,3.09c-0.39,0.21-0.69,0.52-0.89,0.88
				c-0.02-0.46-0.17-0.92-0.46-1.32l-5.01-6.72c-0.38-0.51-0.93-0.83-1.55-0.93c-0.62-0.1-1.25,0.07-1.75,0.44l-6.72,5.01
				c-0.36,0.27-0.62,0.63-0.78,1.03c-0.09-0.44-0.31-0.84-0.64-1.17l-6.65-6.65c-0.92-0.92-2.42-0.92-3.34,0l-6.65,6.65
				c-0.33,0.33-0.54,0.74-0.63,1.17c-0.16-0.41-0.42-0.77-0.78-1.04l-6.72-5.01c-0.51-0.38-1.14-0.54-1.75-0.44
				c-0.62,0.09-1.18,0.42-1.55,0.93l-5.01,6.72c-0.3,0.4-0.45,0.86-0.46,1.32c-0.21-0.36-0.51-0.67-0.89-0.88l-5.65-3.09
				c-1.15-0.63-2.58-0.2-3.21,0.94l-3.09,5.65c-0.63,1.14-0.2,2.58,0.94,3.21l5.65,3.09c0.47,0.26,1.01,0.35,1.54,0.26
				c0.09-0.02,0.17-0.04,0.26-0.06c0.61-0.18,1.11-0.58,1.41-1.13l3.09-5.65c0.18-0.33,0.26-0.69,0.28-1.04
				c0.15,0.26,0.36,0.5,0.62,0.7l6.72,5.01c0.45,0.33,0.99,0.5,1.54,0.47c0.07,0,0.15-0.01,0.22-0.02c0.62-0.09,1.18-0.42,1.55-0.93
				l5.01-6.72c0.2-0.27,0.34-0.58,0.41-0.91c0.11,0.3,0.29,0.57,0.53,0.81l6.65,6.65c0.45,0.45,1.04,0.69,1.67,0.69
				c0.63,0,1.22-0.25,1.67-0.69l6.65-6.65c0.23-0.23,0.41-0.51,0.53-0.81c0.07,0.33,0.2,0.64,0.41,0.91l5.01,6.72
				c0.38,0.51,0.93,0.83,1.55,0.93c0.07,0.01,0.15,0.02,0.22,0.02c0.55,0.03,1.09-0.13,1.54-0.47l6.72-5.01
				c0.26-0.19,0.47-0.43,0.62-0.7c0.01,0.35,0.1,0.71,0.28,1.04l3.09,5.65c0.3,0.55,0.8,0.96,1.41,1.13
				c0.09,0.03,0.17,0.05,0.26,0.06c0.53,0.09,1.06,0,1.54-0.26l5.65-3.09C847.39,381.96,847.82,380.52,847.19,379.38z"/>
			<linearGradient id="SVGID_23_" gradientUnits="userSpaceOnUse" x1="793.3836" y1="344.8284" x2="837.3152" y2="364.388">
				<stop  offset="0.0843" style="stop-color:#CB9E5B"/>
				<stop  offset="0.3848" style="stop-color:#AA824A"/>
				<stop  offset="0.7923" style="stop-color:#E1CBA6"/>
				<stop  offset="0.8676" style="stop-color:#ECD9B7"/>
			</linearGradient>
			<path class="st24" d="M835.42,368.64c-6.08-6.78-14.74-11.21-24.44-11.72c3.64-0.49,6.36-2.37,6.36-4.62
				c0-2.31-2.88-4.24-6.68-4.66c2.03-0.23,3.47-0.87,3.47-1.67c0-0.81-1.51-1.47-3.61-1.68c2.78-0.38,4.86-1.84,4.86-3.58
				c0-1.82-2.27-3.33-5.24-3.62c1.14-0.26,1.96-0.91,1.96-1.69c0-0.77-0.81-1.43-1.95-1.69c0.59-0.1,1.29-0.37,1.72-1.05
				c1.04-1.61,0.13-4.73-2.71-9.25l-0.08-0.12l-0.08,0.12c-2.84,4.53-3.75,7.64-2.71,9.25c0.44,0.68,1.13,0.95,1.72,1.05
				c-1.13,0.26-1.95,0.92-1.95,1.69c0,0.78,0.82,1.43,1.96,1.69c-2.96,0.29-5.23,1.8-5.23,3.62c0,1.74,2.08,3.2,4.86,3.58
				c-2.1,0.21-3.61,0.87-3.61,1.68c0,0.79,1.44,1.44,3.47,1.67c-3.8,0.42-6.68,2.35-6.68,4.66c0,2.24,2.72,4.13,6.36,4.62
				c-9.7,0.51-18.36,4.93-24.44,11.72c8.27-2.78,17.12-4.29,26.32-4.29C818.3,364.36,827.15,365.86,835.42,368.64z"/>
		</g>
		<linearGradient id="SVGID_24_" gradientUnits="userSpaceOnUse" x1="637.3724" y1="276.1863" x2="724.6442" y2="276.1863">
			<stop  offset="0.0843" style="stop-color:#CB9E5B"/>
			<stop  offset="0.3597" style="stop-color:#AA824A"/>
			<stop  offset="0.6008" style="stop-color:#E1CBA6"/>
			<stop  offset="0.6453" style="stop-color:#ECD9B7"/>
			<stop  offset="0.8525" style="stop-color:#B8925B"/>
			<stop  offset="0.8842" style="stop-color:#B0874D"/>
			<stop  offset="1" style="stop-color:#CB9E5B"/>
		</linearGradient>
		<path class="st25" d="M724.32,280.17l-3.51-6.42c-0.71-1.3-2.35-1.78-3.65-1.07l-6.42,3.51c-0.44,0.24-0.78,0.6-1.02,1
			c-0.02-0.53-0.19-1.05-0.53-1.5l-5.7-7.64c-0.43-0.57-1.06-0.95-1.77-1.05c-0.7-0.11-1.42,0.08-1.99,0.51l-7.64,5.7
			c-0.41,0.31-0.71,0.71-0.89,1.18c-0.11-0.5-0.35-0.96-0.72-1.33l-7.56-7.56c-1.05-1.05-2.75-1.05-3.8,0l-7.56,7.56
			c-0.38,0.38-0.61,0.84-0.72,1.33c-0.18-0.46-0.48-0.87-0.89-1.18l-7.64-5.7c-0.58-0.43-1.29-0.61-1.99-0.51
			c-0.71,0.1-1.34,0.48-1.77,1.05l-5.7,7.64c-0.34,0.45-0.51,0.98-0.53,1.5c-0.24-0.41-0.58-0.76-1.02-1l-6.42-3.51
			c-1.3-0.71-2.94-0.23-3.65,1.07l-3.51,6.42c-0.71,1.3-0.23,2.94,1.07,3.65l6.42,3.51c0.54,0.3,1.15,0.4,1.75,0.29
			c0.1-0.02,0.2-0.04,0.3-0.07c0.69-0.2,1.26-0.66,1.6-1.29l3.51-6.42c0.21-0.38,0.3-0.78,0.32-1.18c0.18,0.3,0.41,0.57,0.71,0.79
			l7.64,5.7c0.51,0.38,1.12,0.56,1.75,0.53c0.08,0,0.17-0.01,0.25-0.02c0.71-0.1,1.34-0.48,1.77-1.05l5.7-7.64
			c0.23-0.31,0.38-0.66,0.47-1.03c0.13,0.34,0.33,0.65,0.6,0.92l7.56,7.56c0.51,0.51,1.18,0.79,1.9,0.79c0.72,0,1.39-0.28,1.9-0.79
			l7.56-7.56c0.27-0.27,0.47-0.58,0.6-0.92c0.08,0.37,0.23,0.72,0.47,1.04l5.7,7.64c0.43,0.57,1.06,0.95,1.77,1.05
			c0.08,0.01,0.17,0.02,0.25,0.02c0.63,0.03,1.24-0.15,1.75-0.53l7.64-5.7c0.3-0.22,0.53-0.49,0.71-0.79
			c0.02,0.4,0.11,0.81,0.32,1.18l3.51,6.42c0.34,0.63,0.91,1.09,1.6,1.29c0.1,0.03,0.2,0.05,0.3,0.07c0.6,0.1,1.21,0,1.75-0.29
			l6.42-3.51C724.55,283.11,725.03,281.47,724.32,280.17z"/>
		<linearGradient id="SVGID_25_" gradientUnits="userSpaceOnUse" x1="651.3917" y1="241.3651" x2="711.2413" y2="241.3651">
			<stop  offset="0.0843" style="stop-color:#CB9E5B"/>
			<stop  offset="0.3848" style="stop-color:#AA824A"/>
			<stop  offset="0.7923" style="stop-color:#E1CBA6"/>
			<stop  offset="0.8676" style="stop-color:#ECD9B7"/>
		</linearGradient>
		<path class="st26" d="M683.45,253.83c4.14-0.56,7.23-2.7,7.23-5.25c0-2.63-3.27-4.82-7.59-5.3c2.31-0.26,3.94-0.99,3.94-1.9
			c0-0.92-1.7-1.67-4.08-1.91c3.15-0.44,5.5-2.09,5.5-4.07c0-2.07-2.57-3.78-5.92-4.12c1.29-0.3,2.21-1.04,2.21-1.92
			c0-0.88-0.92-1.62-2.21-1.92c0.67-0.12,1.46-0.42,1.96-1.19c1.18-1.84,0.15-5.38-3.08-10.52l-0.09-0.14l-0.09,0.14
			c-3.23,5.15-4.26,8.69-3.08,10.52c0.5,0.77,1.29,1.08,1.96,1.19c-1.29,0.29-2.21,1.04-2.21,1.92c0,0.88,0.92,1.62,2.21,1.92
			c-3.36,0.34-5.92,2.06-5.92,4.12c0,1.98,2.35,3.64,5.5,4.07c-2.38,0.24-4.09,0.99-4.09,1.91c0,0.9,1.64,1.64,3.94,1.9
			c-4.32,0.48-7.59,2.67-7.59,5.3c0,2.55,3.09,4.69,7.23,5.25c-11.03,0.58-20.87,5.61-27.79,13.32c9.4-3.16,19.46-4.87,29.92-4.87
			s20.53,1.71,29.92,4.87C704.33,259.43,694.48,254.41,683.45,253.83z"/>
		<linearGradient id="SVGID_26_" gradientUnits="userSpaceOnUse" x1="653.7982" y1="383.7149" x2="708.2161" y2="339.6481">
			<stop  offset="0.0179" style="stop-color:#AA824A"/>
			<stop  offset="0.0641" style="stop-color:#B78D50"/>
			<stop  offset="0.1364" style="stop-color:#C29757"/>
			<stop  offset="0.2382" style="stop-color:#C99C5A"/>
			<stop  offset="0.5208" style="stop-color:#CB9E5B"/>
			<stop  offset="1" style="stop-color:#ECD9B7"/>
		</linearGradient>
		<path class="st27" d="M681.01,306.05c2.47,18.49,3.04,37.04,3.12,55.63c-0.07,18.6-0.64,37.15-3.12,55.63
			c-2.49-18.49-3.05-37.04-3.12-55.63C677.97,343.09,678.53,324.54,681.01,306.05L681.01,306.05z"/>
		<g>
			<g>
				<g>
					<path class="st3" d="M56.89,258.42c0,0-9.23-9.36,0.31-17.25c0,0-8.27-4.84-18.95,1.93c-4.23,2.68-9.07,4.32-14.07,4.62
						c-3.34,0.2-6.95-0.15-10.1-1.73c0,0,7.85,11.3,19.79,8.61c0,0-6.73,4.44-19.3,3.75c0,0,7.63,5.3,13.7,6.03
						c0,0,8.11,1.24,17.43-3.59C45.7,260.8,51.4,257.67,56.89,258.42z"/>
					<path class="st4" d="M30.85,265.17c-1.59,0-2.56-0.14-2.68-0.16c-6.13-0.74-13.64-5.92-13.96-6.14l-1.81-1.26l2.2,0.12
						c7.18,0.39,12.46-0.93,15.58-2.1c-10.07-0.03-16.55-9.19-16.63-9.29l-1.4-2.01l2.19,1.1c2.66,1.33,5.96,1.89,9.79,1.66
						c4.8-0.29,9.56-1.85,13.77-4.53c10.87-6.9,19.25-2.15,19.6-1.95l0.77,0.45l-0.69,0.57c-2.57,2.13-3.95,4.56-4.08,7.22
						c-0.25,4.91,3.78,9.08,3.82,9.12l1.28,1.31l-1.81-0.25c-5.22-0.72-10.75,2.28-10.8,2.31
						C39.73,264.61,34.04,265.17,30.85,265.17z M16.83,259.06c2.62,1.59,7.47,4.23,11.52,4.72c0.1,0.01,8.06,1.15,17.07-3.53
						c0.21-0.11,4.95-2.68,10.03-2.57c-1.3-1.69-3.37-5.02-3.17-8.87c0.14-2.76,1.42-5.28,3.82-7.5c-2.27-0.98-9.05-3.05-17.5,2.31
						c-4.39,2.78-9.35,4.41-14.36,4.72c-3,0.18-5.7-0.1-8.07-0.84c2.8,3,9.18,8.39,17.58,6.5l3.33-0.75l-2.85,1.88
						c-0.26,0.17-6.09,3.93-16.99,3.93C17.1,259.06,16.96,259.06,16.83,259.06z"/>
				</g>
				<g>
					<defs>
						<path id="SVGID_27_" d="M55.44,257.68c0,0-7.55-8.73,0.64-16.37c0,0-7.57-4.99-18.12,1.79c-4.18,2.68-8.69,4.76-13.63,5.06
							c-3.3,0.2-5.68-0.01-8.8-1.07c0,0,8.57,10.3,20.59,6.56c0,0-4.64,5.45-19.3,5.41c0,0,0.6,0.68,2.56,1.66
							c7.02,3.5,14.08,4.54,21.21,2.12c0.09-0.03,0.17-0.06,0.26-0.09c1.87-0.66,3.67-1.52,5.38-2.53
							C47.94,259.22,51.4,257.12,55.44,257.68z"/>
					</defs>
					<clipPath id="SVGID_28_">
						<use xlink:href="#SVGID_27_"  style="overflow:visible;"/>
					</clipPath>
					<path class="st28" d="M22.61,255.26c-5.63,0-9.12-1.86-9.36-2l1.66-3.1c0.34,0.18,8.35,4.35,19.99-1.64
						c1.05-0.54,2.03-1.16,2.86-1.7c2.21-1.44,10.18-5.82,19.64-1.55l-1.42,3.22c-7.66-3.46-13.98-0.25-16.34,1.29
						c-0.9,0.59-1.98,1.27-3.16,1.88C31.12,254.42,26.39,255.26,22.61,255.26z"/>
					<path class="st28" d="M24.31,262.75c-5.63,0-11.22-2.91-11.46-3.05l3.76-2.04l-0.83,1.55l0.82-1.55
						c0.33,0.18,8.35,4.35,19.99-1.64c1.04-0.54,2.03-1.16,2.86-1.7c2.21-1.44,10.17-5.83,19.64-1.55l-1.42,3.22
						c-7.87-3.56-14.5,0.09-16.34,1.29c-0.9,0.59-1.98,1.27-3.16,1.88C32.82,261.91,28.08,262.75,24.31,262.75z"/>
				</g>
			</g>
			<linearGradient id="SVGID_29_" gradientUnits="userSpaceOnUse" x1="53.0537" y1="273.2379" x2="66.7039" y2="273.2379">
				<stop  offset="0.0843" style="stop-color:#CB9E5B"/>
				<stop  offset="0.3914" style="stop-color:#AA824A"/>
				<stop  offset="0.4465" style="stop-color:#E1CBA6"/>
				<stop  offset="0.4567" style="stop-color:#ECD9B7"/>
				<stop  offset="0.5481" style="stop-color:#B8925B"/>
				<stop  offset="0.562" style="stop-color:#B0874D"/>
				<stop  offset="0.7211" style="stop-color:#CB9E5B"/>
			</linearGradient>
			<path class="st29" d="M66.7,230.42c0-0.6-2.12-1.11-4.99-1.26v-1.43c0-1.01-0.82-1.83-1.83-1.83c-1.01,0-1.83,0.82-1.83,1.83
				v1.43c-2.88,0.15-4.99,0.66-4.99,1.26c0,0.6,2.12,1.11,4.99,1.26v88.9l3.66-0.33v-88.57C64.59,231.53,66.7,231.02,66.7,230.42z"
				/>
			<g>
				<path class="st4" d="M136.55,410.9c-1.59-8.99-3.29-17.96-5.5-26.85c-3.28-12.66-6.6-25.6-13.73-36.91c0,0-4.35-0.03-4.35-0.03
					c-22.67-0.29-63.87-0.28-86.51,0.04c-3.98,6.45-6.85,13.38-9.04,20.41c-5.22,16.22-8.37,32.91-11.21,49.56
					c-1.85,11.17-3.23,22.51-3.13,33.84c-0.11,8.26,0.92,17.06,1.89,25.21c0,0,1.13,8.33,1.13,8.33h0.87
					c0.25-9.93-0.27-23.55,0.44-33.28c0.64-11.08,2.51-22,4.88-32.84c2.29-10.86,4.79-21.67,7.72-32.36
					c3.03-10.55,6.06-21.41,11.5-30.96c0,0-0.66,0.37-0.66,0.37c20.47,0.12,61.66,0.08,82.13,0c0,0-0.67-0.38-0.67-0.38
					c5.44,9.55,8.47,20.41,11.5,30.96c2.46,9.58,4.95,19.21,7.07,28.9L136.55,410.9z"/>
				
					<linearGradient id="SVGID_30_" gradientUnits="userSpaceOnUse" x1="175.4675" y1="390.8351" x2="196.7274" y2="390.8351" gradientTransform="matrix(-1 0 0 1 292.3507 0)">
					<stop  offset="0.0843" style="stop-color:#CB9E5B"/>
					<stop  offset="0.2351" style="stop-color:#B98F52"/>
					<stop  offset="0.3997" style="stop-color:#AE854C"/>
					<stop  offset="0.572" style="stop-color:#AA824A"/>
					<stop  offset="0.6099" style="stop-color:#B7935F"/>
					<stop  offset="0.6793" style="stop-color:#CAAC7F"/>
					<stop  offset="0.7514" style="stop-color:#D9C097"/>
					<stop  offset="0.8265" style="stop-color:#E4CEA9"/>
					<stop  offset="0.9066" style="stop-color:#EAD6B4"/>
					<stop  offset="1" style="stop-color:#ECD9B7"/>
				</linearGradient>
				<path class="st30" d="M110.71,419.12c-2.93-15.78-6.69-31.38-11.72-46.71c-1.13-3.17-2.38-6.64-3.37-9.86
					c1.31,1.92,2.54,3.89,3.78,5.88c8.54,14.44,14.4,31.63,17.48,49.34"/>
				
					<linearGradient id="SVGID_31_" gradientUnits="userSpaceOnUse" x1="181.3963" y1="335.8285" x2="259.4956" y2="335.8285" gradientTransform="matrix(-1 0 0 1 292.3507 0)">
					<stop  offset="0.0843" style="stop-color:#CB9E5B"/>
					<stop  offset="0.3597" style="stop-color:#AA824A"/>
					<stop  offset="0.6008" style="stop-color:#E1CBA6"/>
					<stop  offset="0.6453" style="stop-color:#ECD9B7"/>
					<stop  offset="0.8525" style="stop-color:#B8925B"/>
					<stop  offset="0.8842" style="stop-color:#B0874D"/>
					<stop  offset="1" style="stop-color:#CB9E5B"/>
				</linearGradient>
				<path class="st31" d="M33.15,339.4l3.14-5.75c0.64-1.16,2.1-1.59,3.26-0.96l5.75,3.14c0.4,0.22,0.7,0.53,0.91,0.9
					c0.02-0.47,0.17-0.94,0.47-1.35l5.1-6.84c0.38-0.51,0.95-0.85,1.58-0.94c0.63-0.1,1.27,0.07,1.78,0.45l6.84,5.1
					c0.37,0.27,0.63,0.64,0.8,1.05c0.1-0.45,0.32-0.86,0.65-1.19l6.77-6.77c0.94-0.94,2.46-0.94,3.4,0l6.77,6.77
					c0.34,0.34,0.55,0.75,0.64,1.19c0.16-0.42,0.43-0.78,0.8-1.06l6.84-5.1c0.52-0.38,1.16-0.55,1.78-0.45
					c0.64,0.09,1.2,0.43,1.58,0.94l5.1,6.84c0.3,0.41,0.46,0.88,0.47,1.35c0.21-0.36,0.51-0.68,0.91-0.9l5.75-3.14
					c1.16-0.64,2.63-0.21,3.26,0.96l3.14,5.75c0.64,1.16,0.21,2.63-0.96,3.26l-5.75,3.14c-0.48,0.26-1.03,0.35-1.56,0.26
					c-0.09-0.02-0.18-0.04-0.27-0.06c-0.62-0.18-1.13-0.59-1.43-1.15l-3.14-5.75c-0.18-0.34-0.27-0.7-0.28-1.06
					c-0.16,0.27-0.37,0.51-0.63,0.71l-6.84,5.1c-0.46,0.34-1,0.5-1.56,0.47c-0.07,0-0.15-0.01-0.22-0.02
					c-0.64-0.09-1.2-0.43-1.58-0.94l-5.1-6.84c-0.21-0.28-0.34-0.59-0.42-0.92c-0.12,0.3-0.29,0.58-0.54,0.82l-6.77,6.77
					c-0.45,0.45-1.06,0.7-1.7,0.7c-0.64,0-1.25-0.25-1.7-0.7l-6.77-6.77c-0.24-0.24-0.42-0.52-0.54-0.83
					c-0.07,0.33-0.21,0.65-0.42,0.93l-5.1,6.84c-0.38,0.51-0.95,0.85-1.58,0.94c-0.07,0.01-0.15,0.02-0.22,0.02
					c-0.56,0.03-1.11-0.13-1.56-0.47l-6.84-5.1c-0.26-0.2-0.48-0.44-0.63-0.71c-0.01,0.36-0.1,0.72-0.28,1.06l-3.14,5.75
					c-0.31,0.56-0.82,0.97-1.43,1.15c-0.09,0.03-0.18,0.05-0.27,0.06c-0.53,0.09-1.08,0-1.56-0.26l-5.75-3.14
					C32.94,342.02,32.51,340.56,33.15,339.4z"/>
				
					<linearGradient id="SVGID_32_" gradientUnits="userSpaceOnUse" x1="286.2138" y1="434.4791" x2="223.0927" y2="398.0361" gradientTransform="matrix(-1 0 0 1 292.3507 0)">
					<stop  offset="0.0843" style="stop-color:#CB9E5B"/>
					<stop  offset="0.2351" style="stop-color:#B98F52"/>
					<stop  offset="0.3997" style="stop-color:#AE854C"/>
					<stop  offset="0.572" style="stop-color:#AA824A"/>
					<stop  offset="0.5912" style="stop-color:#B08A54"/>
					<stop  offset="0.672" style="stop-color:#C5A677"/>
					<stop  offset="0.7537" style="stop-color:#D6BC93"/>
					<stop  offset="0.8355" style="stop-color:#E2CCA7"/>
					<stop  offset="0.9175" style="stop-color:#EAD6B3"/>
					<stop  offset="1" style="stop-color:#ECD9B7"/>
				</linearGradient>
				<path class="st32" d="M26.62,469.96c3.41-33.09,8.4-65.92,18.78-97.56c1.13-3.16,2.38-6.63,3.37-9.86
					c-1.31,1.92-2.54,3.89-3.78,5.88C27.95,397.25,21.59,437,26.62,469.96L26.62,469.96z"/>
				
					<linearGradient id="SVGID_33_" gradientUnits="userSpaceOnUse" x1="207.7778" y1="425.0984" x2="233.1142" y2="368.1918" gradientTransform="matrix(-1 0 0 1 292.3507 0)">
					<stop  offset="0.0843" style="stop-color:#CB9E5B"/>
					<stop  offset="0.2351" style="stop-color:#B98F52"/>
					<stop  offset="0.3997" style="stop-color:#AE854C"/>
					<stop  offset="0.572" style="stop-color:#AA824A"/>
					<stop  offset="0.6587" style="stop-color:#BB9866"/>
					<stop  offset="0.8114" style="stop-color:#D5BB92"/>
					<stop  offset="0.9303" style="stop-color:#E6D1AD"/>
					<stop  offset="1" style="stop-color:#ECD9B7"/>
				</linearGradient>
				<path class="st33" d="M71.9,362.55c-2.47,11.3-3.04,22.67-3.12,34.09c0.07,11.42,0.64,22.79,3.12,34.09
					c2.48-11.3,3.05-22.67,3.12-34.09C74.95,385.22,74.37,373.85,71.9,362.55L71.9,362.55z"/>
				
					<linearGradient id="SVGID_34_" gradientUnits="userSpaceOnUse" x1="193.9422" y1="304.6672" x2="247.5014" y2="304.6672" gradientTransform="matrix(-1 0 0 1 292.3507 0)">
					<stop  offset="0.0843" style="stop-color:#CB9E5B"/>
					<stop  offset="0.3848" style="stop-color:#AA824A"/>
					<stop  offset="0.7923" style="stop-color:#E1CBA6"/>
					<stop  offset="0.8676" style="stop-color:#ECD9B7"/>
				</linearGradient>
				<path class="st34" d="M69.72,315.82c-3.7-0.5-6.47-2.41-6.47-4.7c0-2.35,2.93-4.31,6.79-4.74c-2.06-0.23-3.53-0.89-3.53-1.7
					c0-0.83,1.53-1.5,3.68-1.71c-2.83-0.39-4.94-1.87-4.94-3.64c0-1.85,2.31-3.39,5.33-3.69c-1.16-0.26-2-0.93-2-1.72
					c0-0.79,0.83-1.45,1.98-1.72c-0.6-0.1-1.31-0.38-1.75-1.07c-1.06-1.64-0.13-4.81,2.76-9.42l0.08-0.12l0.08,0.12
					c2.89,4.6,3.82,7.77,2.76,9.42c-0.45,0.69-1.15,0.96-1.76,1.07c1.15,0.26,1.98,0.93,1.98,1.72c0,0.79-0.84,1.46-2,1.72
					c3.02,0.3,5.33,1.83,5.33,3.69c0,1.77-2.12,3.26-4.94,3.64c2.14,0.21,3.68,0.89,3.68,1.71c0,0.81-1.47,1.47-3.53,1.7
					c3.86,0.43,6.79,2.39,6.79,4.74c0,2.28-2.77,4.2-6.47,4.7c9.87,0.52,18.68,5.02,24.87,11.92c-8.41-2.83-17.42-4.36-26.78-4.36
					c-9.36,0-18.37,1.53-26.78,4.36C51.04,320.84,59.85,316.34,69.72,315.82z"/>
			</g>
		</g>
		<g>
			<linearGradient id="SVGID_35_" gradientUnits="userSpaceOnUse" x1="235.0716" y1="352.2312" x2="386.9589" y2="352.2312">
				<stop  offset="0.0179" style="stop-color:#AA824A"/>
				<stop  offset="0.0397" style="stop-color:#B78D50"/>
				<stop  offset="0.0739" style="stop-color:#C29757"/>
				<stop  offset="0.122" style="stop-color:#C99C5A"/>
				<stop  offset="0.2556" style="stop-color:#CB9E5B"/>
				<stop  offset="0.5618" style="stop-color:#ECD9B7"/>
				<stop  offset="0.8225" style="stop-color:#CB9E5B"/>
				<stop  offset="0.8236" style="stop-color:#CB9E5B"/>
				<stop  offset="1" style="stop-color:#B0874D"/>
			</linearGradient>
			<path class="st35" d="M386.96,375.19c-2.65-17.57-5.8-35.06-10.41-52.25c-3.24-11.85-6.78-23.43-13.48-34.29
				c-25.37-0.37-71.41-0.38-96.81-0.05c0,0-5.01,0.04-5.01,0.04c-6.89,11.02-10.4,22.85-13.69,34.9
				c-4.1,15.14-6.77,30.33-9.37,45.69c-2.06,13.53-3.99,27.33-2.7,41.08c0.1,0.65-0.06,1.31,0.42,1.94
				c0.77,1.19,1.72,2.77,2.68,3.84l0,0c0,0,1,0,1,0c0.02-10.23,0.48-20.37,2.52-30.42c3.83-20.05,8.14-40.07,13.86-59.67
				c2.96-9.66,5.99-19.56,11.06-28.3c0,0-0.76,0.43-0.76,0.43c22.87,0.09,68.9,0.13,91.77,0l-0.76-0.43
				c2.52,4.21,4.42,8.85,6.18,13.5c5.16,14.08,8.82,28.67,12.22,43.27c1.58,7.47,3.33,14.94,4.89,22.44L386.96,375.19z"/>
			<linearGradient id="SVGID_36_" gradientUnits="userSpaceOnUse" x1="257.4946" y1="366.9038" x2="289.0453" y2="365.2503">
				<stop  offset="0.0179" style="stop-color:#AA824A"/>
				<stop  offset="0.0641" style="stop-color:#B78D50"/>
				<stop  offset="0.1364" style="stop-color:#C29757"/>
				<stop  offset="0.2382" style="stop-color:#C99C5A"/>
				<stop  offset="0.5208" style="stop-color:#CB9E5B"/>
				<stop  offset="1" style="stop-color:#ECD9B7"/>
			</linearGradient>
			<path class="st36" d="M261.19,426.08c-4.96-36.61,1.51-77.23,18.64-110.04c1.93-3.38,3.99-6.72,6.11-9.98
				c-0.81,2.49-1.68,4.92-2.56,7.34l-1.33,3.61C270.12,352.27,264.53,389.05,261.19,426.08L261.19,426.08z"/>
			<linearGradient id="SVGID_37_" gradientUnits="userSpaceOnUse" x1="337.6061" y1="346.3398" x2="363.0188" y2="346.3398">
				<stop  offset="0" style="stop-color:#ECD9B7"/>
				<stop  offset="0.5186" style="stop-color:#CB9E5B"/>
				<stop  offset="0.5208" style="stop-color:#CB9E5B"/>
				<stop  offset="0.7901" style="stop-color:#C99C5A"/>
				<stop  offset="0.8871" style="stop-color:#C29757"/>
				<stop  offset="0.956" style="stop-color:#B78D50"/>
				<stop  offset="1" style="stop-color:#AA824A"/>
			</linearGradient>
			<path class="st37" d="M363.02,382.42c-2.31-23.25-8.81-46.28-19.31-66.39c-1.93-3.38-3.99-6.72-6.11-9.98
				c0.81,2.49,1.68,4.92,2.56,7.34c0,0,1.33,3.61,1.33,3.61c7.68,22.69,12.73,46.02,16.24,69.63L363.02,382.42z"/>
			<linearGradient id="SVGID_38_" gradientUnits="userSpaceOnUse" x1="284.9362" y1="383.7149" x2="339.3542" y2="339.6481">
				<stop  offset="0.0179" style="stop-color:#AA824A"/>
				<stop  offset="0.0641" style="stop-color:#B78D50"/>
				<stop  offset="0.1364" style="stop-color:#C29757"/>
				<stop  offset="0.2382" style="stop-color:#C99C5A"/>
				<stop  offset="0.5208" style="stop-color:#CB9E5B"/>
				<stop  offset="1" style="stop-color:#ECD9B7"/>
			</linearGradient>
			<path class="st38" d="M312.15,306.05c2.47,18.49,3.04,37.04,3.12,55.63c-0.07,18.6-0.64,37.15-3.12,55.63
				c-2.49-18.49-3.05-37.04-3.12-55.63C309.1,343.09,309.67,324.54,312.15,306.05L312.15,306.05z"/>
			<g>
				<g>
					<path class="st3" d="M297.44,189.69c0,0-10.31-10.46,0.35-19.28c0,0-9.25-5.41-21.18,2.16c-4.72,3-10.13,4.83-15.72,5.16
						c-3.73,0.23-7.77-0.17-11.29-1.93c0,0,8.77,12.63,22.12,9.63c0,0-7.52,4.96-21.56,4.19c0,0,8.53,5.92,15.3,6.74
						c0,0,9.07,1.39,19.48-4.01C284.94,192.35,291.3,188.84,297.44,189.69z"/>
					<path class="st4" d="M268.35,197.16c-1.77,0-2.86-0.16-2.98-0.18c-6.83-0.83-15.21-6.6-15.57-6.85l-1.81-1.26l2.2,0.12
						c8.37,0.46,14.4-1.16,17.84-2.49c-11.5,0.2-18.86-10.23-18.94-10.35l-1.4-2.01l2.19,1.1c2.99,1.5,6.68,2.12,10.97,1.86
						c5.38-0.32,10.71-2.08,15.42-5.07c12.11-7.68,21.44-2.4,21.83-2.17l0.77,0.45l-0.69,0.57c-2.89,2.39-4.44,5.12-4.59,8.12
						c-0.28,5.52,4.24,10.19,4.29,10.24l1.28,1.31l-1.81-0.25c-5.85-0.81-12.05,2.56-12.12,2.59
						C278.24,196.53,271.9,197.16,268.35,197.16z M252.41,190.33c2.87,1.76,8.47,4.85,13.13,5.42c0.11,0.02,9.02,1.29,19.11-3.95
						c0.23-0.13,5.61-3.04,11.33-2.86c-1.44-1.84-3.85-5.61-3.63-9.99c0.16-3.1,1.61-5.92,4.31-8.39
						c-2.46-1.05-10.25-3.47-19.71,2.54c-4.89,3.1-10.43,4.92-16.01,5.26c-3.46,0.21-6.56-0.14-9.25-1.03
						c3.04,3.32,10.3,9.65,19.91,7.49l3.33-0.75l-2.85,1.88C271.77,186.15,265.01,190.49,252.41,190.33z"/>
				</g>
				<g>
					<defs>
						<path id="SVGID_39_" d="M295.98,188.94c0,0-8.66-9.75,0.67-18.38c0,0-8.57-5.57-20.36,2c-4.67,3-9.71,5.31-15.23,5.65
							c-3.69,0.23-6.34-0.01-9.83-1.19c0,0,9.56,12.07,23.66,7.04c0,0-6.56,6.92-22.97,6.12c0,0,1.44,0.93,3.61,2.07
							c7.69,4.06,15.74,5.08,23.7,2.37c0.1-0.03,0.19-0.07,0.29-0.1c2.09-0.73,4.1-1.69,6.01-2.82
							C287.43,190.58,291.46,188.31,295.98,188.94z"/>
					</defs>
					<clipPath id="SVGID_40_">
						<use xlink:href="#SVGID_39_"  style="overflow:visible;"/>
					</clipPath>
					<path class="st39" d="M259.14,186.15c-6.29,0-10.2-2.08-10.46-2.23l1.85-3.46c0.37,0.2,9.33,4.86,22.34-1.83
						c1.17-0.6,2.27-1.3,3.19-1.9c2.47-1.61,11.37-6.51,21.95-1.73l-1.59,3.59c-8.55-3.87-15.62-0.28-18.26,1.44
						c-1,0.65-2.21,1.42-3.54,2.1C268.64,185.21,263.35,186.15,259.14,186.15z"/>
					<path class="st39" d="M261.03,194.52c-6.29,0-12.54-3.26-12.8-3.4l4.2-2.28l-0.93,1.73l0.92-1.73
						c0.37,0.2,9.33,4.86,22.34-1.83c1.17-0.6,2.27-1.3,3.19-1.9c2.47-1.61,11.37-6.51,21.95-1.73l-1.59,3.59
						c-8.79-3.97-16.2,0.1-18.26,1.44c-1.01,0.66-2.21,1.42-3.54,2.1C270.54,193.59,265.25,194.52,261.03,194.52z"/>
				</g>
			</g>
			<linearGradient id="SVGID_41_" gradientUnits="userSpaceOnUse" x1="291.5404" y1="206.2447" x2="306.7937" y2="206.2447">
				<stop  offset="0.0843" style="stop-color:#CB9E5B"/>
				<stop  offset="0.3914" style="stop-color:#AA824A"/>
				<stop  offset="0.4465" style="stop-color:#E1CBA6"/>
				<stop  offset="0.4567" style="stop-color:#ECD9B7"/>
				<stop  offset="0.5481" style="stop-color:#B8925B"/>
				<stop  offset="0.562" style="stop-color:#B0874D"/>
				<stop  offset="0.7211" style="stop-color:#CB9E5B"/>
			</linearGradient>
			<path class="st40" d="M306.79,158.4c0-0.67-2.36-1.24-5.58-1.41v-1.6c0-1.13-0.92-2.05-2.05-2.05c-1.13,0-2.05,0.92-2.05,2.05
				v1.6c-3.22,0.17-5.58,0.74-5.58,1.41c0,0.67,2.36,1.24,5.58,1.41v99.34l4.09-0.37V159.8
				C304.43,159.63,306.79,159.07,306.79,158.4z"/>
			<linearGradient id="SVGID_42_" gradientUnits="userSpaceOnUse" x1="268.5093" y1="276.1863" x2="355.781" y2="276.1863">
				<stop  offset="0.0843" style="stop-color:#CB9E5B"/>
				<stop  offset="0.3597" style="stop-color:#AA824A"/>
				<stop  offset="0.6008" style="stop-color:#E1CBA6"/>
				<stop  offset="0.6453" style="stop-color:#ECD9B7"/>
				<stop  offset="0.8525" style="stop-color:#B8925B"/>
				<stop  offset="0.8842" style="stop-color:#B0874D"/>
				<stop  offset="1" style="stop-color:#CB9E5B"/>
			</linearGradient>
			<path class="st41" d="M355.45,280.17l-3.51-6.42c-0.71-1.3-2.35-1.78-3.65-1.07l-6.42,3.51c-0.44,0.24-0.78,0.6-1.02,1
				c-0.02-0.53-0.19-1.05-0.53-1.5l-5.7-7.64c-0.43-0.57-1.06-0.95-1.77-1.05c-0.7-0.11-1.42,0.08-1.99,0.51l-7.64,5.7
				c-0.41,0.31-0.71,0.71-0.89,1.18c-0.11-0.5-0.35-0.96-0.72-1.33l-7.56-7.56c-1.05-1.05-2.75-1.05-3.8,0l-7.56,7.56
				c-0.38,0.38-0.61,0.84-0.72,1.33c-0.18-0.46-0.48-0.87-0.89-1.18l-7.64-5.7c-0.58-0.43-1.29-0.61-1.99-0.51
				c-0.71,0.1-1.34,0.48-1.77,1.05l-5.7,7.64c-0.34,0.45-0.51,0.98-0.53,1.5c-0.24-0.41-0.58-0.76-1.02-1l-6.42-3.51
				c-1.3-0.71-2.94-0.23-3.65,1.07l-3.51,6.42c-0.71,1.3-0.23,2.94,1.07,3.65l6.42,3.51c0.54,0.3,1.15,0.4,1.75,0.29
				c0.1-0.02,0.2-0.04,0.3-0.07c0.69-0.2,1.26-0.66,1.6-1.29l3.51-6.42c0.21-0.38,0.3-0.78,0.32-1.18c0.18,0.3,0.41,0.57,0.71,0.79
				l7.64,5.7c0.51,0.38,1.12,0.56,1.75,0.53c0.08,0,0.17-0.01,0.25-0.02c0.71-0.1,1.34-0.48,1.77-1.05l5.7-7.64
				c0.23-0.31,0.38-0.66,0.47-1.03c0.13,0.34,0.33,0.65,0.6,0.92l7.56,7.56c0.51,0.51,1.18,0.79,1.9,0.79c0.72,0,1.39-0.28,1.9-0.79
				l7.56-7.56c0.27-0.27,0.47-0.58,0.6-0.92c0.08,0.37,0.23,0.72,0.47,1.04l5.7,7.64c0.43,0.57,1.06,0.95,1.77,1.05
				c0.08,0.01,0.17,0.02,0.25,0.02c0.63,0.03,1.24-0.15,1.75-0.53l7.64-5.7c0.3-0.22,0.53-0.49,0.71-0.79
				c0.02,0.4,0.11,0.81,0.32,1.18l3.51,6.42c0.34,0.63,0.91,1.09,1.6,1.29c0.1,0.03,0.2,0.05,0.3,0.07c0.6,0.1,1.21,0,1.75-0.29
				l6.42-3.51C355.68,283.11,356.16,281.47,355.45,280.17z"/>
			<linearGradient id="SVGID_43_" gradientUnits="userSpaceOnUse" x1="282.5286" y1="241.3651" x2="342.3781" y2="241.3651">
				<stop  offset="0.0843" style="stop-color:#CB9E5B"/>
				<stop  offset="0.3848" style="stop-color:#AA824A"/>
				<stop  offset="0.7923" style="stop-color:#E1CBA6"/>
				<stop  offset="0.8676" style="stop-color:#ECD9B7"/>
			</linearGradient>
			<path class="st42" d="M314.59,253.83c4.14-0.56,7.23-2.7,7.23-5.25c0-2.63-3.27-4.82-7.59-5.3c2.31-0.26,3.94-0.99,3.94-1.9
				c0-0.92-1.7-1.67-4.08-1.91c3.15-0.44,5.5-2.09,5.5-4.07c0-2.07-2.57-3.78-5.92-4.12c1.29-0.3,2.21-1.04,2.21-1.92
				c0-0.88-0.92-1.62-2.21-1.92c0.67-0.12,1.46-0.42,1.96-1.19c1.18-1.84,0.15-5.38-3.08-10.52l-0.09-0.14l-0.09,0.14
				c-3.23,5.15-4.26,8.69-3.08,10.52c0.5,0.77,1.29,1.08,1.96,1.19c-1.29,0.29-2.21,1.04-2.21,1.92c0,0.88,0.92,1.62,2.21,1.92
				c-3.36,0.34-5.92,2.06-5.92,4.12c0,1.98,2.35,3.64,5.5,4.07c-2.38,0.24-4.09,0.99-4.09,1.91c0,0.9,1.64,1.64,3.94,1.9
				c-4.32,0.48-7.59,2.67-7.59,5.3c0,2.55,3.09,4.69,7.23,5.25c-11.03,0.58-20.87,5.61-27.79,13.32c9.4-3.16,19.46-4.87,29.92-4.87
				c10.46,0,20.53,1.71,29.92,4.87C335.47,259.43,325.62,254.41,314.59,253.83z"/>
		</g>
		<g>
			<linearGradient id="SVGID_44_" gradientUnits="userSpaceOnUse" x1="55.96" y1="435.4811" x2="297.9172" y2="435.4811">
				<stop  offset="0" style="stop-color:#CB9E5B"/>
				<stop  offset="0.3848" style="stop-color:#AA824A"/>
				<stop  offset="0.5342" style="stop-color:#E1CBA6"/>
				<stop  offset="0.5618" style="stop-color:#ECD9B7"/>
				<stop  offset="0.7385" style="stop-color:#B8925B"/>
				<stop  offset="0.7655" style="stop-color:#B0874D"/>
				<stop  offset="0.9551" style="stop-color:#CB9E5B"/>
			</linearGradient>
			<path class="st43" d="M293.49,457.21c-1.72-2.02-3.49-4-5.3-5.92c-69.37-73.78-184.73-55.1-232.23,32.95l0,0
				c13.46-58.08,69.27-97.64,128.09-97.52c46.07-0.14,90.41,24.2,113.86,62.69L293.49,457.21z"/>
			<path class="st4" d="M184.32,417.82c2.37,11.04,2.86,22.17,2.85,33.37c-0.16,11.2-0.82,22.31-3.39,33.32
				c-2.39-11.04-2.87-22.17-2.85-33.37C181.1,439.94,181.77,428.83,184.32,417.82L184.32,417.82z"/>
			<path class="st4" d="M220.03,418.2c20.73,10.81,36.59,35.36,37.08,58.85c-0.06,2.49-0.18,4.99-0.44,7.45
				c-1.07-3.14-1.6-6.31-2.72-9.39C247.51,453.6,234.76,435.02,220.03,418.2L220.03,418.2z"/>
			<path class="st4" d="M146.77,418.2c-14.73,16.82-27.49,35.4-33.92,56.91c-1.12,3.08-1.65,6.26-2.72,9.39
				c-0.26-2.46-0.38-4.97-0.44-7.45C110.17,453.57,126.03,429.01,146.77,418.2L146.77,418.2z"/>
			<linearGradient id="SVGID_45_" gradientUnits="userSpaceOnUse" x1="145.6732" y1="375.8709" x2="222.4321" y2="375.8709">
				<stop  offset="0.0843" style="stop-color:#CB9E5B"/>
				<stop  offset="0.3597" style="stop-color:#AA824A"/>
				<stop  offset="0.6008" style="stop-color:#E1CBA6"/>
				<stop  offset="0.6453" style="stop-color:#ECD9B7"/>
				<stop  offset="0.8525" style="stop-color:#B8925B"/>
				<stop  offset="0.8842" style="stop-color:#B0874D"/>
				<stop  offset="1" style="stop-color:#CB9E5B"/>
			</linearGradient>
			<path class="st44" d="M222.14,379.38l-3.09-5.65c-0.63-1.14-2.06-1.56-3.21-0.94l-5.65,3.09c-0.39,0.21-0.69,0.52-0.89,0.88
				c-0.02-0.46-0.17-0.92-0.46-1.32l-5.01-6.72c-0.38-0.51-0.93-0.83-1.55-0.93c-0.62-0.1-1.25,0.07-1.75,0.44l-6.72,5.01
				c-0.36,0.27-0.62,0.63-0.78,1.03c-0.09-0.44-0.31-0.84-0.64-1.17l-6.65-6.65c-0.92-0.92-2.42-0.92-3.34,0l-6.65,6.65
				c-0.33,0.33-0.54,0.74-0.63,1.17c-0.16-0.41-0.42-0.77-0.78-1.04l-6.72-5.01c-0.51-0.38-1.14-0.54-1.75-0.44
				c-0.62,0.09-1.18,0.42-1.55,0.93l-5.01,6.72c-0.3,0.4-0.45,0.86-0.46,1.32c-0.21-0.36-0.51-0.67-0.89-0.88l-5.65-3.09
				c-1.15-0.63-2.58-0.2-3.21,0.94l-3.09,5.65c-0.63,1.14-0.2,2.58,0.94,3.21l5.65,3.09c0.47,0.26,1.01,0.35,1.54,0.26
				c0.09-0.02,0.17-0.04,0.26-0.06c0.61-0.18,1.11-0.58,1.41-1.13l3.09-5.65c0.18-0.33,0.26-0.69,0.28-1.04
				c0.15,0.26,0.36,0.5,0.62,0.7l6.72,5.01c0.45,0.33,0.99,0.5,1.54,0.47c0.07,0,0.15-0.01,0.22-0.02c0.62-0.09,1.18-0.42,1.55-0.93
				l5.01-6.72c0.2-0.27,0.34-0.58,0.41-0.91c0.12,0.3,0.29,0.57,0.53,0.81l6.65,6.65c0.45,0.45,1.04,0.69,1.67,0.69
				c0.63,0,1.22-0.25,1.67-0.69l6.65-6.65c0.23-0.23,0.41-0.51,0.53-0.81c0.07,0.33,0.2,0.64,0.41,0.91l5.01,6.72
				c0.38,0.51,0.93,0.83,1.55,0.93c0.07,0.01,0.15,0.02,0.22,0.02c0.55,0.03,1.09-0.13,1.54-0.47l6.72-5.01
				c0.26-0.19,0.47-0.43,0.62-0.7c0.01,0.35,0.1,0.71,0.28,1.04l3.09,5.65c0.3,0.55,0.8,0.96,1.41,1.13
				c0.09,0.03,0.17,0.05,0.26,0.06c0.53,0.09,1.06,0,1.54-0.26l5.65-3.09C222.35,381.96,222.77,380.52,222.14,379.38z"/>
			<linearGradient id="SVGID_46_" gradientUnits="userSpaceOnUse" x1="168.3354" y1="344.8284" x2="212.267" y2="364.388">
				<stop  offset="0.0843" style="stop-color:#CB9E5B"/>
				<stop  offset="0.3848" style="stop-color:#AA824A"/>
				<stop  offset="0.7923" style="stop-color:#E1CBA6"/>
				<stop  offset="0.8676" style="stop-color:#ECD9B7"/>
			</linearGradient>
			<path class="st45" d="M210.37,368.64c-6.08-6.78-14.74-11.21-24.44-11.72c3.64-0.49,6.36-2.37,6.36-4.62
				c0-2.31-2.88-4.24-6.68-4.66c2.03-0.23,3.47-0.87,3.47-1.67c0-0.81-1.51-1.47-3.61-1.68c2.78-0.38,4.86-1.84,4.86-3.58
				c0-1.82-2.27-3.33-5.24-3.62c1.14-0.26,1.96-0.91,1.96-1.69c0-0.77-0.81-1.43-1.95-1.69c0.59-0.1,1.29-0.37,1.72-1.05
				c1.04-1.61,0.13-4.73-2.71-9.25l-0.08-0.12l-0.08,0.12c-2.84,4.53-3.75,7.64-2.71,9.25c0.44,0.68,1.13,0.95,1.72,1.05
				c-1.13,0.26-1.95,0.92-1.95,1.69c0,0.78,0.82,1.43,1.96,1.69c-2.96,0.29-5.23,1.8-5.23,3.62c0,1.74,2.08,3.2,4.86,3.58
				c-2.1,0.21-3.61,0.87-3.61,1.68c0,0.79,1.44,1.44,3.47,1.67c-3.8,0.42-6.68,2.35-6.68,4.66c0,2.24,2.72,4.13,6.36,4.62
				c-9.7,0.51-18.36,4.93-24.44,11.72c8.27-2.78,17.12-4.29,26.32-4.29C193.26,364.36,202.11,365.86,210.37,368.64z"/>
		</g>
		<g>
			<linearGradient id="SVGID_47_" gradientUnits="userSpaceOnUse" x1="490.9153" y1="425.6797" x2="502.1915" y2="426.8649">
				<stop  offset="0" style="stop-color:#AA824A"/>
				<stop  offset="0.3235" style="stop-color:#CB9E5B"/>
				<stop  offset="1" style="stop-color:#ECD9B7"/>
			</linearGradient>
			<path class="st46" d="M497.02,373.03c2.81,17.69,3.34,35.45,3.28,53.27c-0.24,17.82-1.08,35.57-4.21,53.2
				c-2.83-17.69-3.35-35.45-3.28-53.27C493.06,408.42,493.9,390.67,497.02,373.03L497.02,373.03z"/>
			<linearGradient id="SVGID_48_" gradientUnits="userSpaceOnUse" x1="558.7502" y1="426.5752" x2="622.3698" y2="426.5752">
				<stop  offset="0" style="stop-color:#CB9E5B"/>
				<stop  offset="0.1967" style="stop-color:#AA824A"/>
				<stop  offset="0.4401" style="stop-color:#E1CBA6"/>
				<stop  offset="0.4851" style="stop-color:#ECD9B7"/>
				<stop  offset="0.7975" style="stop-color:#B8925B"/>
				<stop  offset="0.8453" style="stop-color:#B0874D"/>
				<stop  offset="1" style="stop-color:#CB9E5B"/>
			</linearGradient>
			<path class="st47" d="M558.75,373.64c32.5,17.53,58.84,52.65,63.09,89.74c0.63,5.37,0.67,10.79,0.26,16.13
				c-1.51-6.54-2.9-12.89-5.02-19.16C606.36,426.49,584.1,398.07,558.75,373.64L558.75,373.64z"/>
			<linearGradient id="SVGID_49_" gradientUnits="userSpaceOnUse" x1="368.459" y1="426.5752" x2="432.0785" y2="426.5752">
				<stop  offset="0" style="stop-color:#CB9E5B"/>
				<stop  offset="0.1947" style="stop-color:#AA824A"/>
				<stop  offset="0.4493" style="stop-color:#E1CBA6"/>
				<stop  offset="0.4963" style="stop-color:#ECD9B7"/>
				<stop  offset="0.7971" style="stop-color:#B8925B"/>
				<stop  offset="0.8431" style="stop-color:#B0874D"/>
				<stop  offset="1" style="stop-color:#CB9E5B"/>
			</linearGradient>
			<path class="st48" d="M432.08,373.64c-25.35,24.43-47.62,52.86-58.33,86.7c-2.12,6.27-3.52,12.63-5.02,19.16
				c-0.41-5.34-0.37-10.76,0.26-16.13C373.24,426.29,399.57,391.17,432.08,373.64L432.08,373.64z"/>
			<linearGradient id="SVGID_50_" gradientUnits="userSpaceOnUse" x1="430.1906" y1="313.2253" x2="562.9059" y2="313.2253">
				<stop  offset="0.0843" style="stop-color:#CB9E5B"/>
				<stop  offset="0.3597" style="stop-color:#AA824A"/>
				<stop  offset="0.6008" style="stop-color:#E1CBA6"/>
				<stop  offset="0.6453" style="stop-color:#ECD9B7"/>
				<stop  offset="0.8525" style="stop-color:#B8925B"/>
				<stop  offset="0.8842" style="stop-color:#B0874D"/>
				<stop  offset="1" style="stop-color:#CB9E5B"/>
			</linearGradient>
			<path class="st49" d="M562.41,319.29l-5.34-9.76c-1.08-1.98-3.57-2.71-5.55-1.62l-9.76,5.34c-0.67,0.37-1.19,0.91-1.55,1.52
				c-0.03-0.8-0.29-1.6-0.8-2.29l-8.67-11.62c-0.65-0.87-1.61-1.44-2.69-1.6c-1.07-0.16-2.16,0.12-3.03,0.77l-11.62,8.67
				c-0.62,0.46-1.08,1.08-1.35,1.79c-0.16-0.76-0.54-1.46-1.1-2.02l-11.5-11.5c-1.59-1.59-4.18-1.59-5.78,0l-11.5,11.5
				c-0.57,0.57-0.93,1.28-1.09,2.02c-0.27-0.71-0.73-1.33-1.36-1.79l-11.62-8.67c-0.88-0.65-1.96-0.93-3.03-0.77
				c-1.08,0.16-2.03,0.73-2.69,1.6l-8.67,11.62c-0.51,0.69-0.77,1.49-0.8,2.29c-0.36-0.62-0.87-1.16-1.55-1.52l-9.76-5.34
				c-1.98-1.08-4.47-0.35-5.55,1.62l-5.34,9.76c-1.08,1.98-0.35,4.47,1.62,5.55l9.76,5.34c0.82,0.45,1.75,0.6,2.66,0.44
				c0.15-0.03,0.3-0.06,0.45-0.1c1.05-0.31,1.91-1,2.44-1.96l5.34-9.76c0.31-0.57,0.46-1.19,0.48-1.8c0.27,0.46,0.63,0.87,1.08,1.2
				l11.62,8.67c0.77,0.58,1.7,0.86,2.65,0.81c0.13-0.01,0.25-0.02,0.38-0.04c1.08-0.16,2.03-0.73,2.69-1.6l8.67-11.62
				c0.35-0.47,0.58-1.01,0.71-1.57c0.2,0.51,0.5,0.99,0.91,1.4l11.5,11.5c0.77,0.77,1.8,1.2,2.89,1.2c1.09,0,2.12-0.42,2.89-1.2
				l11.5-11.5c0.41-0.41,0.71-0.88,0.91-1.4c0.12,0.56,0.35,1.1,0.71,1.58l8.67,11.62c0.65,0.87,1.61,1.44,2.69,1.6
				c0.12,0.02,0.25,0.03,0.38,0.04c0.95,0.05,1.88-0.23,2.65-0.81l11.62-8.67c0.45-0.34,0.81-0.75,1.08-1.2
				c0.02,0.61,0.17,1.22,0.48,1.8l5.34,9.76c0.52,0.96,1.39,1.65,2.44,1.96c0.15,0.04,0.3,0.08,0.45,0.1
				c0.91,0.16,1.84,0.01,2.66-0.44l9.76-5.34C562.76,323.75,563.49,321.27,562.41,319.29z"/>
			<linearGradient id="SVGID_51_" gradientUnits="userSpaceOnUse" x1="469.3733" y1="259.553" x2="545.3304" y2="293.3713">
				<stop  offset="0.0843" style="stop-color:#CB9E5B"/>
				<stop  offset="0.3848" style="stop-color:#AA824A"/>
				<stop  offset="0.7923" style="stop-color:#E1CBA6"/>
				<stop  offset="0.8676" style="stop-color:#ECD9B7"/>
			</linearGradient>
			<path class="st50" d="M499.8,280.47c6.29-0.85,11-4.1,11-7.98c0-3.98-4.94-7.31-11.48-8.05c3.48-0.4,5.93-1.52,5.93-2.89
				c0-1.4-2.56-2.54-6.16-2.92c4.76-0.67,8.31-3.19,8.31-6.19c0-3.14-3.9-5.75-9.01-6.27c1.96-0.45,3.35-1.58,3.35-2.92
				c0-1.34-1.4-2.47-3.36-2.92c1.02-0.18,2.22-0.64,2.98-1.82c1.8-2.79,0.22-8.17-4.69-16l-0.13-0.21l-0.13,0.21
				c-4.91,7.83-6.48,13.21-4.69,16c0.76,1.18,1.96,1.64,2.98,1.82c-1.96,0.45-3.36,1.58-3.36,2.92c0,1.33,1.4,2.47,3.35,2.92
				c-5.11,0.52-9.01,3.13-9.01,6.27c0,3,3.55,5.51,8.31,6.19c-3.6,0.37-6.16,1.52-6.16,2.92c0,1.37,2.45,2.49,5.93,2.89
				c-6.53,0.74-11.48,4.07-11.48,8.05c0,3.88,4.7,7.13,10.99,7.98c-16.77,0.88-31.74,8.53-42.25,20.26
				c14.29-4.8,29.6-7.41,45.51-7.41s31.21,2.61,45.51,7.41C531.54,289,516.57,281.35,499.8,280.47z"/>
			<linearGradient id="SVGID_52_" gradientUnits="userSpaceOnUse" x1="275.0777" y1="411.6911" x2="718.0187" y2="411.6911">
				<stop  offset="0.0843" style="stop-color:#CB9E5B"/>
				<stop  offset="0.3848" style="stop-color:#AA824A"/>
				<stop  offset="0.5342" style="stop-color:#E1CBA6"/>
				<stop  offset="0.5618" style="stop-color:#ECD9B7"/>
				<stop  offset="0.7385" style="stop-color:#B8925B"/>
				<stop  offset="0.7655" style="stop-color:#B0874D"/>
				<stop  offset="0.9551" style="stop-color:#CB9E5B"/>
			</linearGradient>
			<path class="st51" d="M275.08,494.12c40.78-147.99,217.79-209.87,346.08-129.26c36.56,22.98,66.58,56.22,84.65,95.25
				c5.13,10.99,9.22,22.39,12.21,34c-5.52-10.64-11.62-20.84-18.26-30.57c-45.17-66.84-122.26-109.93-203.21-109.37
				C402.11,353.68,317.27,410.52,275.08,494.12L275.08,494.12z"/>
		</g>
	</g>
	<linearGradient id="SVGID_53_" gradientUnits="userSpaceOnUse" x1="45.0556" y1="513.3453" x2="948.0978" y2="513.3453">
		<stop  offset="0.0843" style="stop-color:#CB9E5B"/>
		<stop  offset="0.3848" style="stop-color:#AA824A"/>
		<stop  offset="0.5342" style="stop-color:#E1CBA6"/>
		<stop  offset="0.5618" style="stop-color:#ECD9B7"/>
		<stop  offset="0.7385" style="stop-color:#B8925B"/>
		<stop  offset="0.7655" style="stop-color:#B0874D"/>
		<stop  offset="0.9551" style="stop-color:#CB9E5B"/>
	</linearGradient>
	<path class="st52" d="M45.06,513.35l28.22-0.59l28.22-0.44l56.44-0.87c37.63-0.46,75.25-0.87,112.88-1.13
		c37.63-0.36,75.25-0.44,112.88-0.65l112.88-0.22l112.88,0.2c37.63,0.22,75.25,0.29,112.88,0.65c37.63,0.26,75.25,0.68,112.88,1.13
		l56.44,0.88l28.22,0.44l28.22,0.59l-28.22,0.59l-28.22,0.44l-56.44,0.88c-37.63,0.46-75.25,0.87-112.88,1.13
		c-37.63,0.36-75.25,0.43-112.88,0.65l-112.88,0.2l-112.88-0.22c-37.63-0.21-75.25-0.29-112.88-0.65
		c-37.63-0.26-75.25-0.67-112.88-1.13l-56.44-0.87l-28.22-0.44L45.06,513.35z"/>
	<linearGradient id="SVGID_54_" gradientUnits="userSpaceOnUse" x1="0" y1="494.1203" x2="993.1534" y2="494.1203">
		<stop  offset="0.0843" style="stop-color:#CB9E5B"/>
		<stop  offset="0.3848" style="stop-color:#AA824A"/>
		<stop  offset="0.5342" style="stop-color:#E1CBA6"/>
		<stop  offset="0.5618" style="stop-color:#ECD9B7"/>
		<stop  offset="0.7385" style="stop-color:#B8925B"/>
		<stop  offset="0.7655" style="stop-color:#B0874D"/>
		<stop  offset="0.9551" style="stop-color:#CB9E5B"/>
	</linearGradient>
	<path class="st53" d="M0,494.12l31.04-0.59l31.04-0.44l62.07-0.87c41.38-0.46,82.76-0.87,124.14-1.13
		c41.38-0.36,82.76-0.44,124.14-0.65l124.14-0.22l124.14,0.2c41.38,0.22,82.76,0.29,124.14,0.65c41.38,0.26,82.76,0.68,124.14,1.13
		l62.07,0.88l31.04,0.44l31.04,0.59l-31.04,0.59l-31.04,0.44l-62.07,0.88c-41.38,0.46-82.76,0.87-124.14,1.13
		c-41.38,0.36-82.76,0.43-124.14,0.65l-124.14,0.2l-124.14-0.22c-41.38-0.21-82.76-0.29-124.14-0.65
		c-41.38-0.26-82.76-0.67-124.14-1.13l-62.07-0.87l-31.04-0.44L0,494.12z"/>
</g>
</svg>
